G04 ================== begin FILE IDENTIFICATION RECORD ==================*
G04 Layout Name:  LAYOUT.brd*
G04 Film Name:    FAB*
G04 File Format:  Gerber RS274X*
G04 File Origin:  Cadence Allegro 16.6-2015-S059*
G04 Origin Date:  Sat Dec 06 18:39:30 2025*
G04 *
G04 Layer:  MANUFACTURING/NCDRILL_LEGEND*
G04 Layer:  MANUFACTURING/NCDRILL_FIGURE*
G04 Layer:  MANUFACTURING/XSECTION_CHART*
G04 Layer:  MANUFACTURING/NCLEGEND-1-2*
G04 Layer:  BOARD GEOMETRY/OUTLINE*
G04 Layer:  BOARD GEOMETRY/DIMENSION*
G04 *
G04 Offset:    (0.00 0.00)*
G04 Mirror:    No*
G04 Mode:      Positive*
G04 Rotation:  0*
G04 FullContactRelief:  No*
G04 UndefLineWidth:     7.00*
G04 ================== end FILE IDENTIFICATION RECORD ====================*
%FSLAX25Y25*MOIN*%
%IR0*IPPOS*OFA0.00000B0.00000*MIA0B0*SFA1.00000B1.00000*%
%AMMACRO10*
1,1,.007,.025,0.0*
20,1,.007,.025,0.0,.02462,-.004341,0.0*
1,1,.007,.02462,-.004341*
20,1,.007,.02462,-.004341,.023492,-.008551,0.0*
1,1,.007,.023492,-.008551*
20,1,.007,.023492,-.008551,.021651,-.0125,0.0*
1,1,.007,.021651,-.0125*
20,1,.007,.021651,-.0125,.019151,-.01607,0.0*
1,1,.007,.019151,-.01607*
20,1,.007,.019151,-.01607,.01607,-.019151,0.0*
1,1,.007,.01607,-.019151*
20,1,.007,.01607,-.019151,.0125,-.021651,0.0*
1,1,.007,.0125,-.021651*
20,1,.007,.0125,-.021651,.008551,-.023492,0.0*
1,1,.007,.008551,-.023492*
20,1,.007,.008551,-.023492,.004341,-.02462,0.0*
1,1,.007,.004341,-.02462*
20,1,.007,.004341,-.02462,0.0,-.025,0.0*
1,1,.007,0.0,-.025*
20,1,.007,0.0,-.025,-.004341,-.02462,0.0*
1,1,.007,-.004341,-.02462*
20,1,.007,-.004341,-.02462,-.008551,-.023492,0.0*
1,1,.007,-.008551,-.023492*
20,1,.007,-.008551,-.023492,-.0125,-.021651,0.0*
1,1,.007,-.0125,-.021651*
20,1,.007,-.0125,-.021651,-.01607,-.019151,0.0*
1,1,.007,-.01607,-.019151*
20,1,.007,-.01607,-.019151,-.019151,-.01607,0.0*
1,1,.007,-.019151,-.01607*
20,1,.007,-.019151,-.01607,-.021651,-.0125,0.0*
1,1,.007,-.021651,-.0125*
20,1,.007,-.021651,-.0125,-.023492,-.008551,0.0*
1,1,.007,-.023492,-.008551*
20,1,.007,-.023492,-.008551,-.02462,-.004341,0.0*
1,1,.007,-.02462,-.004341*
20,1,.007,-.02462,-.004341,-.025,0.0,0.0*
1,1,.007,-.025,0.0*
20,1,.007,-.025,0.0,-.02462,.004341,0.0*
1,1,.007,-.02462,.004341*
20,1,.007,-.02462,.004341,-.023492,.008551,0.0*
1,1,.007,-.023492,.008551*
20,1,.007,-.023492,.008551,-.021651,.0125,0.0*
1,1,.007,-.021651,.0125*
20,1,.007,-.021651,.0125,-.019151,.01607,0.0*
1,1,.007,-.019151,.01607*
20,1,.007,-.019151,.01607,-.01607,.019151,0.0*
1,1,.007,-.01607,.019151*
20,1,.007,-.01607,.019151,-.0125,.021651,0.0*
1,1,.007,-.0125,.021651*
20,1,.007,-.0125,.021651,-.008551,.023492,0.0*
1,1,.007,-.008551,.023492*
20,1,.007,-.008551,.023492,-.004341,.02462,0.0*
1,1,.007,-.004341,.02462*
20,1,.007,-.004341,.02462,0.0,.025,0.0*
1,1,.007,0.0,.025*
20,1,.007,0.0,.025,.004341,.02462,0.0*
1,1,.007,.004341,.02462*
20,1,.007,.004341,.02462,.008551,.023492,0.0*
1,1,.007,.008551,.023492*
20,1,.007,.008551,.023492,.0125,.021651,0.0*
1,1,.007,.0125,.021651*
20,1,.007,.0125,.021651,.01607,.019151,0.0*
1,1,.007,.01607,.019151*
20,1,.007,.01607,.019151,.019151,.01607,0.0*
1,1,.007,.019151,.01607*
20,1,.007,.019151,.01607,.021651,.0125,0.0*
1,1,.007,.021651,.0125*
20,1,.007,.021651,.0125,.023492,.008551,0.0*
1,1,.007,.023492,.008551*
20,1,.007,.023492,.008551,.02462,.004341,0.0*
1,1,.007,.02462,.004341*
20,1,.007,.02462,.004341,.025,0.0,0.0*
1,1,.007,.025,0.0*
1,1,.007,.0125,0.0*
20,1,.007,.0125,0.0,-.0125,0.0,0.0*
1,1,.007,-.0125,0.0*
1,1,.007,0.0,.0125*
20,1,.007,0.0,.0125,0.0,-.0125,0.0*
1,1,.007,0.0,-.0125*
%
%ADD10MACRO10*%
%ADD11C,.007*%
G75*
%LPD*%
G75*
G36*
G01X247350Y169896D02*
Y167624D01*
X249850D01*
Y-29400D01*
X247350D01*
Y-31672D01*
X262350D01*
Y-29400D01*
X259850D01*
Y167624D01*
X262350D01*
Y169896D01*
X247350D01*
G37*
G36*
G01X227350Y-31672D02*
Y-29400D01*
X287350D01*
Y-31672D01*
X227350D01*
G37*
G36*
G01Y167624D02*
Y169896D01*
X287350D01*
Y167624D01*
X227350D01*
G37*
G54D10*
X37500Y47500D03*
X45350Y231000D03*
X77500Y67500D03*
X55000Y87400D03*
X62500Y130000D03*
X72500Y105000D03*
X90000Y80000D03*
X102500Y105000D03*
X127500Y67500D03*
X120000Y62500D03*
Y77500D03*
X140500Y97427D03*
X120000Y130000D03*
G54D11*
G01X-48600Y88750D02*
Y101250D01*
X-50460Y98750D01*
G01Y88750D02*
X-46740D01*
G01X-36200Y88333D02*
X-36510Y88542D01*
Y88958D01*
X-36200Y89167D01*
X-35890Y88958D01*
Y88542D01*
X-36200Y88333D01*
G01X-27210Y90625D02*
X-26280Y89583D01*
X-25195Y88958D01*
X-23800Y88750D01*
X-22405Y89167D01*
X-21320Y90000D01*
X-20545Y91458D01*
X-20390Y93125D01*
X-20700Y94792D01*
X-21475Y95833D01*
X-22560Y96667D01*
X-23645Y96875D01*
X-24730Y96667D01*
X-26125Y95833D01*
X-25660Y101250D01*
X-21475D01*
G01X-11710Y88750D02*
X-11400Y91458D01*
X-10935Y93750D01*
X-10315Y95833D01*
X-9540Y98125D01*
X-8300Y101250D01*
X-14500D01*
G01X-10000Y0D02*
X-40000D01*
G01X-30000Y79375D02*
Y0D01*
G01X-32500Y15000D02*
X-30000Y0D01*
X-27500Y15000D01*
X-32500D01*
G01X-30000Y110625D02*
Y157480D01*
G01X-10000D02*
X-40000D01*
G01X-27500Y142480D02*
X-30000Y157480D01*
X-32500Y142480D01*
X-27500D01*
G01X0Y-10000D02*
Y-27500D01*
G01Y0D02*
Y157480D01*
X157480D01*
Y0D01*
X0D01*
G01X67375Y-17500D02*
X0D01*
G01X15000Y-15000D02*
X0Y-17500D01*
X15000Y-20000D01*
Y-15000D01*
G01X0Y167480D02*
Y187500D01*
G01X39875Y177500D02*
X0D01*
G01X15000Y180000D02*
X0Y177500D01*
X15000Y175000D01*
Y180000D01*
G01X400Y218500D02*
Y318500D01*
X484000D01*
Y218500D01*
X400D01*
G01X11405Y249750D02*
Y262250D01*
X17295D01*
G01X15125Y256208D02*
X11405D01*
G01X24890Y262250D02*
X28610D01*
G01X26750D02*
Y249750D01*
G01X24890D02*
X28610D01*
G01X40080Y256000D02*
X43180D01*
Y252250D01*
X42250Y251000D01*
X41165Y250167D01*
X39615Y249750D01*
X38065Y250167D01*
X36980Y251000D01*
X36050Y252250D01*
X35430Y253708D01*
X35120Y255375D01*
Y256833D01*
X35430Y258083D01*
X36050Y259542D01*
X36980Y260792D01*
X37910Y261625D01*
X39150Y262250D01*
X40235D01*
X41475Y261833D01*
X42405Y261000D01*
G01X48140Y262250D02*
Y253292D01*
X48760Y251416D01*
X50000Y250167D01*
X51550Y249750D01*
X53100Y250167D01*
X54340Y251416D01*
X54960Y253292D01*
Y262250D01*
G01X60850Y249750D02*
Y262250D01*
X64725D01*
X65965Y261625D01*
X66740Y260792D01*
X67050Y259125D01*
X66740Y257458D01*
X65810Y256417D01*
X64725Y255792D01*
X60850D01*
G01X64725D02*
X67050Y249750D01*
G01X79450D02*
X73250D01*
Y262250D01*
X79450D01*
G01X76970Y256208D02*
X73250D01*
G01X400Y243500D02*
X484000D01*
G01X400Y268500D02*
X484000D01*
G01X400Y293500D02*
X484000D01*
G01X53900Y171250D02*
Y183750D01*
X52040Y181250D01*
G01Y171250D02*
X55760D01*
G01X66300Y170833D02*
X65990Y171042D01*
Y171458D01*
X66300Y171667D01*
X66610Y171458D01*
Y171042D01*
X66300Y170833D01*
G01X75290Y173125D02*
X76220Y172083D01*
X77305Y171458D01*
X78700Y171250D01*
X80095Y171667D01*
X81180Y172500D01*
X81955Y173958D01*
X82110Y175625D01*
X81800Y177292D01*
X81025Y178333D01*
X79940Y179167D01*
X78855Y179375D01*
X77770Y179167D01*
X76375Y178333D01*
X76840Y183750D01*
X81025D01*
G01X90790Y171250D02*
X91100Y173958D01*
X91565Y176250D01*
X92185Y178333D01*
X92960Y180625D01*
X94200Y183750D01*
X88000D01*
G01X81400Y-23750D02*
Y-11250D01*
X79540Y-13750D01*
G01Y-23750D02*
X83260D01*
G01X93800Y-24167D02*
X93490Y-23958D01*
Y-23542D01*
X93800Y-23333D01*
X94110Y-23542D01*
Y-23958D01*
X93800Y-24167D01*
G01X102790Y-21875D02*
X103720Y-22917D01*
X104805Y-23542D01*
X106200Y-23750D01*
X107595Y-23333D01*
X108680Y-22500D01*
X109455Y-21042D01*
X109610Y-19375D01*
X109300Y-17708D01*
X108525Y-16667D01*
X107440Y-15833D01*
X106355Y-15625D01*
X105270Y-15833D01*
X103875Y-16667D01*
X104340Y-11250D01*
X108525D01*
G01X118290Y-23750D02*
X118600Y-21042D01*
X119065Y-18750D01*
X119685Y-16667D01*
X120460Y-14375D01*
X121700Y-11250D01*
X115500D01*
G01X105125Y177500D02*
X157480D01*
G01X90300Y268500D02*
Y218500D01*
G01X83790Y299750D02*
Y312250D01*
X86890D01*
X88130Y311625D01*
X89060Y310792D01*
X89835Y309542D01*
X90455Y308083D01*
X90610Y306000D01*
X90455Y303917D01*
X89835Y302458D01*
X89060Y301208D01*
X88130Y300375D01*
X86890Y299750D01*
X83790D01*
G01X96500D02*
Y312250D01*
X100375D01*
X101615Y311625D01*
X102390Y310792D01*
X102700Y309125D01*
X102390Y307458D01*
X101460Y306417D01*
X100375Y305792D01*
X96500D01*
G01X100375D02*
X102700Y299750D01*
G01X110140Y312250D02*
X113860D01*
G01X112000D02*
Y299750D01*
G01X110140D02*
X113860D01*
G01X121300Y312250D02*
Y299750D01*
X127500D01*
G01X133700Y312250D02*
Y299750D01*
X139900D01*
G01X165010Y311208D02*
X164080Y311833D01*
X162995Y312250D01*
X161755D01*
X160360Y311625D01*
X159275Y310583D01*
X158500Y309333D01*
X157880Y307250D01*
X157725Y305375D01*
X158035Y303500D01*
X158500Y302250D01*
X159430Y301000D01*
X160515Y300167D01*
X161600Y299750D01*
X162685D01*
X163770Y300167D01*
X164700Y300791D01*
X165475Y301625D01*
G01X170745Y299750D02*
Y312250D01*
G01X177255D02*
Y299750D01*
G01Y306000D02*
X170745D01*
G01X182525Y299750D02*
X186400Y312250D01*
X190275Y299750D01*
G01X188880Y304125D02*
X183920D01*
G01X195700Y299750D02*
Y312250D01*
X199575D01*
X200815Y311625D01*
X201590Y310792D01*
X201900Y309125D01*
X201590Y307458D01*
X200660Y306417D01*
X199575Y305792D01*
X195700D01*
G01X199575D02*
X201900Y299750D01*
G01X211200Y312250D02*
Y299750D01*
G01X207635Y312250D02*
X214765D01*
G01X223600Y299333D02*
X223290Y299542D01*
Y299958D01*
X223600Y300167D01*
X223910Y299958D01*
Y299542D01*
X223600Y299333D01*
G01Y304958D02*
X223290Y305167D01*
Y305583D01*
X223600Y305792D01*
X223910Y305583D01*
Y305167D01*
X223600Y304958D01*
G01X248400Y312250D02*
Y299750D01*
G01X244835Y312250D02*
X251965D01*
G01X260800Y299750D02*
X259560Y299958D01*
X258475Y300791D01*
X257545Y302042D01*
X256925Y303500D01*
X256615Y305167D01*
Y306833D01*
X256925Y308500D01*
X257545Y309958D01*
X258475Y311208D01*
X259560Y312042D01*
X260800Y312250D01*
X262040Y312042D01*
X263125Y311208D01*
X264055Y309958D01*
X264675Y308500D01*
X264985Y306833D01*
Y305167D01*
X264675Y303500D01*
X264055Y302042D01*
X263125Y300791D01*
X262040Y299958D01*
X260800Y299750D01*
G01X270100D02*
Y312250D01*
X273820D01*
X275060Y311625D01*
X275990Y310167D01*
X276300Y308500D01*
X275990Y306833D01*
X275215Y305583D01*
X273820Y304958D01*
X270100D01*
G01X298000Y312250D02*
Y299750D01*
G01X295830Y308083D02*
X300170D01*
G01X310400Y299750D02*
X309470Y299958D01*
X308540Y300791D01*
X307920Y302250D01*
X307610Y303917D01*
X307920Y305583D01*
X308540Y307042D01*
X309470Y307875D01*
X310400Y308083D01*
X311330Y307875D01*
X312260Y307042D01*
X312880Y305583D01*
X313035Y303917D01*
X312880Y302250D01*
X312260Y300791D01*
X311330Y299958D01*
X310400Y299750D01*
G01X336440Y306417D02*
X337060Y307042D01*
X337525Y308083D01*
X337835Y309542D01*
X337525Y310792D01*
X336905Y311625D01*
X335820Y312250D01*
X331635D01*
Y299750D01*
X336750D01*
X337835Y300583D01*
X338455Y301833D01*
X338765Y303292D01*
X338455Y304750D01*
X337525Y306000D01*
X336440Y306417D01*
X331635D01*
G01X347600Y299750D02*
X346360Y299958D01*
X345275Y300791D01*
X344345Y302042D01*
X343725Y303500D01*
X343415Y305167D01*
Y306833D01*
X343725Y308500D01*
X344345Y309958D01*
X345275Y311208D01*
X346360Y312042D01*
X347600Y312250D01*
X348840Y312042D01*
X349925Y311208D01*
X350855Y309958D01*
X351475Y308500D01*
X351785Y306833D01*
Y305167D01*
X351475Y303500D01*
X350855Y302042D01*
X349925Y300791D01*
X348840Y299958D01*
X347600Y299750D01*
G01X360000Y312250D02*
Y299750D01*
G01X356435Y312250D02*
X363565D01*
G01X372400D02*
Y299750D01*
G01X368835Y312250D02*
X375965D01*
G01X384800Y299750D02*
X383560Y299958D01*
X382475Y300791D01*
X381545Y302042D01*
X380925Y303500D01*
X380615Y305167D01*
Y306833D01*
X380925Y308500D01*
X381545Y309958D01*
X382475Y311208D01*
X383560Y312042D01*
X384800Y312250D01*
X386040Y312042D01*
X387125Y311208D01*
X388055Y309958D01*
X388675Y308500D01*
X388985Y306833D01*
Y305167D01*
X388675Y303500D01*
X388055Y302042D01*
X387125Y300791D01*
X386040Y299958D01*
X384800Y299750D01*
G01X393170D02*
Y312250D01*
X397200Y301833D01*
X401230Y312250D01*
Y299750D01*
G01X132625Y-17500D02*
X157480D01*
G01X114325Y274750D02*
X118200Y287250D01*
X122075Y274750D01*
G01X120680Y279125D02*
X115720D01*
G01X127500Y287250D02*
Y274750D01*
X133700D01*
G01X139900Y287250D02*
Y274750D01*
X146100D01*
G01X164390Y287250D02*
Y278292D01*
X165010Y276416D01*
X166250Y275167D01*
X167800Y274750D01*
X169350Y275167D01*
X170590Y276416D01*
X171210Y278292D01*
Y287250D01*
G01X176635Y274750D02*
Y287250D01*
X183765Y274750D01*
Y287250D01*
G01X190740D02*
X194460D01*
G01X192600D02*
Y274750D01*
G01X190740D02*
X194460D01*
G01X205000Y287250D02*
Y274750D01*
G01X201435Y287250D02*
X208565D01*
G01X214145Y276416D02*
X215385Y275375D01*
X216780Y274750D01*
X218020D01*
X219260Y275375D01*
X220190Y276416D01*
X220655Y277875D01*
X220345Y279333D01*
X219570Y280583D01*
X218175Y281417D01*
X216315Y281833D01*
X215230Y282667D01*
X214765Y284125D01*
X215075Y285583D01*
X215850Y286625D01*
X216935Y287250D01*
X218020D01*
X219105Y286833D01*
X220035Y285792D01*
G01X238325Y274750D02*
X242200Y287250D01*
X246075Y274750D01*
G01X244680Y279125D02*
X239720D01*
G01X251500Y274750D02*
Y287250D01*
X255375D01*
X256615Y286625D01*
X257390Y285792D01*
X257700Y284125D01*
X257390Y282458D01*
X256460Y281417D01*
X255375Y280792D01*
X251500D01*
G01X255375D02*
X257700Y274750D01*
G01X270100D02*
X263900D01*
Y287250D01*
X270100D01*
G01X267620Y281208D02*
X263900D01*
G01X289940Y287250D02*
X293660D01*
G01X291800D02*
Y274750D01*
G01X289940D02*
X293660D01*
G01X300635D02*
Y287250D01*
X307765Y274750D01*
Y287250D01*
G01X324970Y274750D02*
Y287250D01*
X329000Y276833D01*
X333030Y287250D01*
Y274750D01*
G01X339540Y287250D02*
X343260D01*
G01X341400D02*
Y274750D01*
G01X339540D02*
X343260D01*
G01X350700Y287250D02*
Y274750D01*
X356900D01*
G01X362945Y276416D02*
X364185Y275375D01*
X365580Y274750D01*
X366820D01*
X368060Y275375D01*
X368990Y276416D01*
X369455Y277875D01*
X369145Y279333D01*
X368370Y280583D01*
X366975Y281417D01*
X365115Y281833D01*
X364030Y282667D01*
X363565Y284125D01*
X363875Y285583D01*
X364650Y286625D01*
X365735Y287250D01*
X366820D01*
X367905Y286833D01*
X368835Y285792D01*
G01X157480Y-10000D02*
Y-27500D01*
G01X167480Y0D02*
X195000D01*
G01X142480Y-20000D02*
X157480Y-17500D01*
X142480Y-15000D01*
Y-20000D01*
G01X166400Y73750D02*
Y86250D01*
X164540Y83750D01*
G01Y73750D02*
X168260D01*
G01X178800Y73333D02*
X178490Y73542D01*
Y73958D01*
X178800Y74167D01*
X179110Y73958D01*
Y73542D01*
X178800Y73333D01*
G01X187790Y75625D02*
X188720Y74583D01*
X189805Y73958D01*
X191200Y73750D01*
X192595Y74167D01*
X193680Y75000D01*
X194455Y76458D01*
X194610Y78125D01*
X194300Y79792D01*
X193525Y80833D01*
X192440Y81667D01*
X191355Y81875D01*
X190270Y81667D01*
X188875Y80833D01*
X189340Y86250D01*
X193525D01*
G01X203290Y73750D02*
X203600Y76458D01*
X204065Y78750D01*
X204685Y80833D01*
X205460Y83125D01*
X206700Y86250D01*
X200500D01*
G01X167480Y157480D02*
X195000D01*
G01X157480Y167480D02*
Y187500D01*
G01X142480Y175000D02*
X157480Y177500D01*
X142480Y180000D01*
Y175000D01*
G01X162995Y251416D02*
X164235Y250375D01*
X165630Y249750D01*
X166870D01*
X168110Y250375D01*
X169040Y251416D01*
X169505Y252875D01*
X169195Y254333D01*
X168420Y255583D01*
X167025Y256417D01*
X165165Y256833D01*
X164080Y257667D01*
X163615Y259125D01*
X163925Y260583D01*
X164700Y261625D01*
X165785Y262250D01*
X166870D01*
X167955Y261833D01*
X168885Y260792D01*
G01X176790Y262250D02*
X180510D01*
G01X178650D02*
Y249750D01*
G01X176790D02*
X180510D01*
G01X188105Y262250D02*
X193995D01*
X188105Y249750D01*
X193995D01*
G01X206550D02*
X200350D01*
Y262250D01*
X206550D01*
G01X204070Y256208D02*
X200350D01*
G01X160050Y224750D02*
Y237250D01*
X158190Y234750D01*
G01Y224750D02*
X161910D01*
G01X169040Y226625D02*
X169970Y225583D01*
X171055Y224958D01*
X172450Y224750D01*
X173845Y225167D01*
X174930Y226000D01*
X175705Y227458D01*
X175860Y229125D01*
X175550Y230792D01*
X174775Y231833D01*
X173690Y232667D01*
X172605Y232875D01*
X171520Y232667D01*
X170125Y231833D01*
X170590Y237250D01*
X174775D01*
G01X184850Y224333D02*
X184540Y224542D01*
Y224958D01*
X184850Y225167D01*
X185160Y224958D01*
Y224542D01*
X184850Y224333D01*
G01X196940Y224750D02*
X197250Y227458D01*
X197715Y229750D01*
X198335Y231833D01*
X199110Y234125D01*
X200350Y237250D01*
X194150D01*
G01X211510Y224750D02*
Y237250D01*
X205775Y228292D01*
X213525D01*
G01X185000Y64375D02*
Y0D01*
G01X182500Y15000D02*
X185000Y0D01*
X187500Y15000D01*
X182500D01*
G01X185000Y95625D02*
Y157480D01*
G01X187500Y142480D02*
X185000Y157480D01*
X182500Y142480D01*
X187500D01*
G01X227350Y-29400D02*
Y167624D01*
X287350D01*
Y-29400D01*
X227350D01*
G01X279400Y268500D02*
Y218500D01*
G01X308850Y249750D02*
Y262250D01*
X312570D01*
X313810Y261625D01*
X314740Y260167D01*
X315050Y258500D01*
X314740Y256833D01*
X313965Y255583D01*
X312570Y254958D01*
X308850D01*
G01X321250Y262250D02*
Y249750D01*
X327450D01*
G01X332875D02*
X336750Y262250D01*
X340625Y249750D01*
G01X339230Y254125D02*
X334270D01*
G01X349150Y262250D02*
Y249750D01*
G01X345585Y262250D02*
X352715D01*
G01X364650Y249750D02*
X358450D01*
Y262250D01*
X364650D01*
G01X362170Y256208D02*
X358450D01*
G01X370540Y249750D02*
Y262250D01*
X373640D01*
X374880Y261625D01*
X375810Y260792D01*
X376585Y259542D01*
X377205Y258083D01*
X377360Y256000D01*
X377205Y253917D01*
X376585Y252458D01*
X375810Y251208D01*
X374880Y250375D01*
X373640Y249750D01*
X370540D01*
G01X308850Y224750D02*
Y237250D01*
X312570D01*
X313810Y236625D01*
X314740Y235167D01*
X315050Y233500D01*
X314740Y231833D01*
X313965Y230583D01*
X312570Y229958D01*
X308850D01*
G01X321250Y237250D02*
Y224750D01*
X327450D01*
G01X332875D02*
X336750Y237250D01*
X340625Y224750D01*
G01X339230Y229125D02*
X334270D01*
G01X349150Y237250D02*
Y224750D01*
G01X345585Y237250D02*
X352715D01*
G01X364650Y224750D02*
X358450D01*
Y237250D01*
X364650D01*
G01X362170Y231208D02*
X358450D01*
G01X370540Y224750D02*
Y237250D01*
X373640D01*
X374880Y236625D01*
X375810Y235792D01*
X376585Y234542D01*
X377205Y233083D01*
X377360Y231000D01*
X377205Y228917D01*
X376585Y227458D01*
X375810Y226208D01*
X374880Y225375D01*
X373640Y224750D01*
X370540D01*
G01X406500Y268500D02*
Y218500D01*
G01X432850Y249750D02*
X431610Y249958D01*
X430525Y250791D01*
X429595Y252042D01*
X428975Y253500D01*
X428665Y255167D01*
Y256833D01*
X428975Y258500D01*
X429595Y259958D01*
X430525Y261208D01*
X431610Y262042D01*
X432850Y262250D01*
X434090Y262042D01*
X435175Y261208D01*
X436105Y259958D01*
X436725Y258500D01*
X437035Y256833D01*
Y255167D01*
X436725Y253500D01*
X436105Y252042D01*
X435175Y250791D01*
X434090Y249958D01*
X432850Y249750D01*
G01X434090Y253083D02*
X435950Y249750D01*
G01X445250Y262250D02*
Y249750D01*
G01X441685Y262250D02*
X448815D01*
G01X457650Y249750D02*
Y255375D01*
X454550Y262250D01*
G01X460750D02*
X457650Y255375D01*
G01X439050Y224750D02*
Y237250D01*
X437190Y234750D01*
G01Y224750D02*
X440910D01*
G01X448505Y235167D02*
X449435Y236416D01*
X450520Y237042D01*
X451760Y237250D01*
X453310Y236833D01*
X454395Y235792D01*
X454705Y234542D01*
X454550Y233291D01*
X453930Y232250D01*
X450830Y230167D01*
X449435Y228708D01*
X448505Y226625D01*
X448195Y224750D01*
X454705D01*
G01X212950Y-45750D02*
Y-50750D01*
G01X211800Y-45750D02*
X214100D01*
G01X216650Y-50750D02*
X216250Y-50667D01*
X215900Y-50333D01*
X215600Y-49833D01*
X215400Y-49250D01*
X215300Y-48583D01*
Y-47917D01*
X215400Y-47250D01*
X215600Y-46667D01*
X215900Y-46167D01*
X216250Y-45833D01*
X216650Y-45750D01*
X217050Y-45833D01*
X217400Y-46167D01*
X217700Y-46667D01*
X217900Y-47250D01*
X218000Y-47917D01*
Y-48583D01*
X217900Y-49250D01*
X217700Y-49833D01*
X217400Y-50333D01*
X217050Y-50667D01*
X216650Y-50750D01*
G01X220350Y-45750D02*
Y-50750D01*
G01X219200Y-45750D02*
X221500D01*
G01X222800Y-50750D02*
X224050Y-45750D01*
X225300Y-50750D01*
G01X224850Y-49000D02*
X223250D01*
G01X226750Y-45750D02*
Y-50750D01*
X228750D01*
G01X235150Y-45750D02*
Y-50750D01*
G01X234000Y-45750D02*
X236300D01*
G01X237800Y-50750D02*
Y-45750D01*
G01X239900D02*
Y-50750D01*
G01Y-48250D02*
X237800D01*
G01X241950Y-45750D02*
X243150D01*
G01X242550D02*
Y-50750D01*
G01X241950D02*
X243150D01*
G01X247350Y-46167D02*
X247050Y-45917D01*
X246700Y-45750D01*
X246300D01*
X245850Y-46000D01*
X245500Y-46417D01*
X245250Y-46917D01*
X245050Y-47750D01*
X245000Y-48500D01*
X245100Y-49250D01*
X245250Y-49750D01*
X245550Y-50250D01*
X245900Y-50583D01*
X246250Y-50750D01*
X246600D01*
X246950Y-50583D01*
X247250Y-50333D01*
X247500Y-50000D01*
G01X248850Y-50750D02*
Y-45750D01*
G01X250750D02*
X248850Y-48833D01*
G01X251050Y-50750D02*
X249700Y-47417D01*
G01X252500Y-50750D02*
Y-45750D01*
X254800Y-50750D01*
Y-45750D01*
G01X258350Y-50750D02*
X256350D01*
Y-45750D01*
X258350D01*
G01X257550Y-48167D02*
X256350D01*
G01X260000Y-50083D02*
X260400Y-50500D01*
X260850Y-50750D01*
X261250D01*
X261650Y-50500D01*
X261950Y-50083D01*
X262100Y-49500D01*
X262000Y-48917D01*
X261750Y-48417D01*
X261300Y-48083D01*
X260700Y-47917D01*
X260350Y-47583D01*
X260200Y-47000D01*
X260300Y-46417D01*
X260550Y-46000D01*
X260900Y-45750D01*
X261250D01*
X261600Y-45917D01*
X261900Y-46333D01*
G01X263700Y-50083D02*
X264100Y-50500D01*
X264550Y-50750D01*
X264950D01*
X265350Y-50500D01*
X265650Y-50083D01*
X265800Y-49500D01*
X265700Y-48917D01*
X265450Y-48417D01*
X265000Y-48083D01*
X264400Y-47917D01*
X264050Y-47583D01*
X263900Y-47000D01*
X264000Y-46417D01*
X264250Y-46000D01*
X264600Y-45750D01*
X264950D01*
X265300Y-45917D01*
X265600Y-46333D01*
G01X271200Y-48667D02*
X271550Y-48083D01*
X271850Y-47750D01*
X272250Y-47583D01*
X272600Y-47750D01*
X272850Y-48083D01*
X273050Y-48583D01*
X273100Y-49167D01*
X273050Y-49667D01*
X272850Y-50167D01*
X272550Y-50583D01*
X272200Y-50750D01*
X271800Y-50583D01*
X271450Y-50083D01*
X271250Y-49333D01*
X271200Y-48500D01*
X271300Y-47417D01*
X271450Y-46833D01*
X271700Y-46250D01*
X272050Y-45833D01*
X272400Y-45750D01*
X272750Y-45917D01*
X273000Y-46333D01*
G01X274900Y-46583D02*
X275200Y-46083D01*
X275550Y-45833D01*
X275950Y-45750D01*
X276450Y-45917D01*
X276800Y-46333D01*
X276900Y-46833D01*
X276850Y-47333D01*
X276650Y-47750D01*
X275650Y-48583D01*
X275200Y-49167D01*
X274900Y-50000D01*
X274800Y-50750D01*
X276900D01*
G01X279550Y-50917D02*
X279450Y-50833D01*
Y-50667D01*
X279550Y-50583D01*
X279650Y-50667D01*
Y-50833D01*
X279550Y-50917D01*
G01X282400Y-50167D02*
X282750Y-50583D01*
X283150Y-50750D01*
X283550Y-50583D01*
X283900Y-50083D01*
X284150Y-49333D01*
X284250Y-48583D01*
Y-47667D01*
X284150Y-46917D01*
X283900Y-46250D01*
X283600Y-45917D01*
X283250Y-45750D01*
X282850Y-45917D01*
X282550Y-46250D01*
X282350Y-46750D01*
X282250Y-47417D01*
X282350Y-48000D01*
X282600Y-48583D01*
X282900Y-48917D01*
X283250Y-49000D01*
X283650Y-48833D01*
X283950Y-48417D01*
X284250Y-47667D01*
G01X286100Y-50167D02*
X286450Y-50583D01*
X286850Y-50750D01*
X287250Y-50583D01*
X287600Y-50083D01*
X287850Y-49333D01*
X287950Y-48583D01*
Y-47667D01*
X287850Y-46917D01*
X287600Y-46250D01*
X287300Y-45917D01*
X286950Y-45750D01*
X286550Y-45917D01*
X286250Y-46250D01*
X286050Y-46750D01*
X285950Y-47417D01*
X286050Y-48000D01*
X286300Y-48583D01*
X286600Y-48917D01*
X286950Y-49000D01*
X287350Y-48833D01*
X287650Y-48417D01*
X287950Y-47667D01*
G01X293050Y-50750D02*
Y-45750D01*
X294350Y-49917D01*
X295650Y-45750D01*
Y-50750D01*
G01X297450Y-45750D02*
X298650D01*
G01X298050D02*
Y-50750D01*
G01X297450D02*
X298650D01*
G01X300750Y-45750D02*
Y-50750D01*
X302750D01*
G01X210000Y-44750D02*
Y-39750D01*
X211000D01*
X211400Y-40000D01*
X211700Y-40333D01*
X211950Y-40833D01*
X212150Y-41417D01*
X212200Y-42250D01*
X212150Y-43083D01*
X211950Y-43667D01*
X211700Y-44167D01*
X211400Y-44500D01*
X211000Y-44750D01*
X210000D01*
G01X215800D02*
X213800D01*
Y-39750D01*
X215800D01*
G01X215000Y-42167D02*
X213800D01*
G01X217450Y-44083D02*
X217850Y-44500D01*
X218300Y-44750D01*
X218700D01*
X219100Y-44500D01*
X219400Y-44083D01*
X219550Y-43500D01*
X219450Y-42917D01*
X219200Y-42417D01*
X218750Y-42083D01*
X218150Y-41917D01*
X217800Y-41583D01*
X217650Y-41000D01*
X217750Y-40417D01*
X218000Y-40000D01*
X218350Y-39750D01*
X218700D01*
X219050Y-39917D01*
X219350Y-40333D01*
G01X221600Y-39750D02*
X222800D01*
G01X222200D02*
Y-44750D01*
G01X221600D02*
X222800D01*
G01X226200Y-42250D02*
X227200D01*
Y-43750D01*
X226900Y-44250D01*
X226550Y-44583D01*
X226050Y-44750D01*
X225550Y-44583D01*
X225200Y-44250D01*
X224900Y-43750D01*
X224700Y-43167D01*
X224600Y-42500D01*
Y-41917D01*
X224700Y-41417D01*
X224900Y-40833D01*
X225200Y-40333D01*
X225500Y-40000D01*
X225900Y-39750D01*
X226250D01*
X226650Y-39917D01*
X226950Y-40250D01*
G01X228450Y-44750D02*
Y-39750D01*
X230750Y-44750D01*
Y-39750D01*
G01X238100Y-40167D02*
X237800Y-39917D01*
X237450Y-39750D01*
X237050D01*
X236600Y-40000D01*
X236250Y-40417D01*
X236000Y-40917D01*
X235800Y-41750D01*
X235750Y-42500D01*
X235850Y-43250D01*
X236000Y-43750D01*
X236300Y-44250D01*
X236650Y-44583D01*
X237000Y-44750D01*
X237350D01*
X237700Y-44583D01*
X238000Y-44333D01*
X238250Y-44000D01*
G01X239700Y-44750D02*
Y-39750D01*
X240950D01*
X241350Y-40000D01*
X241600Y-40333D01*
X241700Y-41000D01*
X241600Y-41667D01*
X241300Y-42083D01*
X240950Y-42333D01*
X239700D01*
G01X240950D02*
X241700Y-44750D01*
G01X244400D02*
X244000Y-44667D01*
X243650Y-44333D01*
X243350Y-43833D01*
X243150Y-43250D01*
X243050Y-42583D01*
Y-41917D01*
X243150Y-41250D01*
X243350Y-40667D01*
X243650Y-40167D01*
X244000Y-39833D01*
X244400Y-39750D01*
X244800Y-39833D01*
X245150Y-40167D01*
X245450Y-40667D01*
X245650Y-41250D01*
X245750Y-41917D01*
Y-42583D01*
X245650Y-43250D01*
X245450Y-43833D01*
X245150Y-44333D01*
X244800Y-44667D01*
X244400Y-44750D01*
G01X247050Y-44083D02*
X247450Y-44500D01*
X247900Y-44750D01*
X248300D01*
X248700Y-44500D01*
X249000Y-44083D01*
X249150Y-43500D01*
X249050Y-42917D01*
X248800Y-42417D01*
X248350Y-42083D01*
X247750Y-41917D01*
X247400Y-41583D01*
X247250Y-41000D01*
X247350Y-40417D01*
X247600Y-40000D01*
X247950Y-39750D01*
X248300D01*
X248650Y-39917D01*
X248950Y-40333D01*
G01X250750Y-44083D02*
X251150Y-44500D01*
X251600Y-44750D01*
X252000D01*
X252400Y-44500D01*
X252700Y-44083D01*
X252850Y-43500D01*
X252750Y-42917D01*
X252500Y-42417D01*
X252050Y-42083D01*
X251450Y-41917D01*
X251100Y-41583D01*
X250950Y-41000D01*
X251050Y-40417D01*
X251300Y-40000D01*
X251650Y-39750D01*
X252000D01*
X252350Y-39917D01*
X252650Y-40333D01*
G01X258150Y-44083D02*
X258550Y-44500D01*
X259000Y-44750D01*
X259400D01*
X259800Y-44500D01*
X260100Y-44083D01*
X260250Y-43500D01*
X260150Y-42917D01*
X259900Y-42417D01*
X259450Y-42083D01*
X258850Y-41917D01*
X258500Y-41583D01*
X258350Y-41000D01*
X258450Y-40417D01*
X258700Y-40000D01*
X259050Y-39750D01*
X259400D01*
X259750Y-39917D01*
X260050Y-40333D01*
G01X263900Y-44750D02*
X261900D01*
Y-39750D01*
X263900D01*
G01X263100Y-42167D02*
X261900D01*
G01X267700Y-40167D02*
X267400Y-39917D01*
X267050Y-39750D01*
X266650D01*
X266200Y-40000D01*
X265850Y-40417D01*
X265600Y-40917D01*
X265400Y-41750D01*
X265350Y-42500D01*
X265450Y-43250D01*
X265600Y-43750D01*
X265900Y-44250D01*
X266250Y-44583D01*
X266600Y-44750D01*
X266950D01*
X267300Y-44583D01*
X267600Y-44333D01*
X267850Y-44000D01*
G01X270300Y-39750D02*
Y-44750D01*
G01X269150Y-39750D02*
X271450D01*
G01X273400D02*
X274600D01*
G01X274000D02*
Y-44750D01*
G01X273400D02*
X274600D01*
G01X277700D02*
X277300Y-44667D01*
X276950Y-44333D01*
X276650Y-43833D01*
X276450Y-43250D01*
X276350Y-42583D01*
Y-41917D01*
X276450Y-41250D01*
X276650Y-40667D01*
X276950Y-40167D01*
X277300Y-39833D01*
X277700Y-39750D01*
X278100Y-39833D01*
X278450Y-40167D01*
X278750Y-40667D01*
X278950Y-41250D01*
X279050Y-41917D01*
Y-42583D01*
X278950Y-43250D01*
X278750Y-43833D01*
X278450Y-44333D01*
X278100Y-44667D01*
X277700Y-44750D01*
G01X280250D02*
Y-39750D01*
X282550Y-44750D01*
Y-39750D01*
G01X289900Y-40167D02*
X289600Y-39917D01*
X289250Y-39750D01*
X288850D01*
X288400Y-40000D01*
X288050Y-40417D01*
X287800Y-40917D01*
X287600Y-41750D01*
X287550Y-42500D01*
X287650Y-43250D01*
X287800Y-43750D01*
X288100Y-44250D01*
X288450Y-44583D01*
X288800Y-44750D01*
X289150D01*
X289500Y-44583D01*
X289800Y-44333D01*
X290050Y-44000D01*
G01X291450Y-44750D02*
Y-39750D01*
G01X293550D02*
Y-44750D01*
G01Y-42250D02*
X291450D01*
G01X294950Y-44750D02*
X296200Y-39750D01*
X297450Y-44750D01*
G01X297000Y-43000D02*
X295400D01*
G01X298900Y-44750D02*
Y-39750D01*
X300150D01*
X300550Y-40000D01*
X300800Y-40333D01*
X300900Y-41000D01*
X300800Y-41667D01*
X300500Y-42083D01*
X300150Y-42333D01*
X298900D01*
G01X300150D02*
X300900Y-44750D01*
G01X303600Y-39750D02*
Y-44750D01*
G01X302450Y-39750D02*
X304750D01*
G01X207750Y-46417D02*
X210750D01*
G01X211450D02*
X214450D01*
G01X215150D02*
X218150D01*
G01X218850D02*
X221850D01*
G01X222550D02*
X225550D01*
G01X226250D02*
X229250D01*
G01X229950D02*
X232950D01*
G01X233650D02*
X236650D01*
G01X237350D02*
X240350D01*
G01X241050D02*
X244050D01*
G01X244750D02*
X247750D01*
G01X248450D02*
X251450D01*
G01X252150D02*
X255150D01*
G01X255850D02*
X258850D01*
G01X259550D02*
X262550D01*
G01X263250D02*
X266250D01*
G01X266950D02*
X269950D01*
G01X270650D02*
X273650D01*
G01X274350D02*
X277350D01*
G01X278050D02*
X281050D01*
G01X281750D02*
X284750D01*
G01X285450D02*
X288450D01*
G01X289150D02*
X292150D01*
G01X292850D02*
X295850D01*
G01X296550D02*
X299550D01*
G01X300250D02*
X303250D01*
G01X303950D02*
X306950D01*
G01X254850Y174396D02*
X249850D01*
X250850Y173796D01*
G01X254850D02*
Y174996D01*
G01X253183Y177446D02*
Y178746D01*
G01X250683Y180846D02*
X250183Y181146D01*
X249933Y181496D01*
X249850Y181896D01*
X250017Y182396D01*
X250433Y182746D01*
X250933Y182846D01*
X251433Y182796D01*
X251850Y182596D01*
X252683Y181596D01*
X253267Y181146D01*
X254100Y180846D01*
X254850Y180746D01*
Y182846D01*
G01X291550Y-28400D02*
Y-33400D01*
X293550D01*
G01X295300Y-29233D02*
X295600Y-28733D01*
X295950Y-28483D01*
X296350Y-28400D01*
X296850Y-28567D01*
X297200Y-28983D01*
X297300Y-29483D01*
X297250Y-29983D01*
X297050Y-30400D01*
X296050Y-31233D01*
X295600Y-31817D01*
X295300Y-32650D01*
X295200Y-33400D01*
X297300D01*
G01X299950Y-33567D02*
X299850Y-33483D01*
Y-33317D01*
X299950Y-33233D01*
X300050Y-33317D01*
Y-33483D01*
X299950Y-33567D01*
G01Y-31317D02*
X299850Y-31233D01*
Y-31067D01*
X299950Y-30983D01*
X300050Y-31067D01*
Y-31233D01*
X299950Y-31317D01*
G01X307750Y-30733D02*
X307950Y-30483D01*
X308100Y-30067D01*
X308200Y-29483D01*
X308100Y-28983D01*
X307900Y-28650D01*
X307550Y-28400D01*
X306200D01*
Y-33400D01*
X307850D01*
X308200Y-33067D01*
X308400Y-32567D01*
X308500Y-31983D01*
X308400Y-31400D01*
X308100Y-30900D01*
X307750Y-30733D01*
X306200D01*
G01X311050Y-33400D02*
X310650Y-33317D01*
X310300Y-32983D01*
X310000Y-32483D01*
X309800Y-31900D01*
X309700Y-31233D01*
Y-30567D01*
X309800Y-29900D01*
X310000Y-29317D01*
X310300Y-28817D01*
X310650Y-28483D01*
X311050Y-28400D01*
X311450Y-28483D01*
X311800Y-28817D01*
X312100Y-29317D01*
X312300Y-29900D01*
X312400Y-30567D01*
Y-31233D01*
X312300Y-31900D01*
X312100Y-32483D01*
X311800Y-32983D01*
X311450Y-33317D01*
X311050Y-33400D01*
G01X314750Y-28400D02*
Y-33400D01*
G01X313600Y-28400D02*
X315900D01*
G01X318450D02*
Y-33400D01*
G01X317300Y-28400D02*
X319600D01*
G01X322150Y-33400D02*
X321750Y-33317D01*
X321400Y-32983D01*
X321100Y-32483D01*
X320900Y-31900D01*
X320800Y-31233D01*
Y-30567D01*
X320900Y-29900D01*
X321100Y-29317D01*
X321400Y-28817D01*
X321750Y-28483D01*
X322150Y-28400D01*
X322550Y-28483D01*
X322900Y-28817D01*
X323200Y-29317D01*
X323400Y-29900D01*
X323500Y-30567D01*
Y-31233D01*
X323400Y-31900D01*
X323200Y-32483D01*
X322900Y-32983D01*
X322550Y-33317D01*
X322150Y-33400D01*
G01X324550D02*
Y-28400D01*
X325850Y-32567D01*
X327150Y-28400D01*
Y-33400D01*
G01X334350Y-28817D02*
X334050Y-28567D01*
X333700Y-28400D01*
X333300D01*
X332850Y-28650D01*
X332500Y-29067D01*
X332250Y-29567D01*
X332050Y-30400D01*
X332000Y-31150D01*
X332100Y-31900D01*
X332250Y-32400D01*
X332550Y-32900D01*
X332900Y-33233D01*
X333250Y-33400D01*
X333600D01*
X333950Y-33233D01*
X334250Y-32983D01*
X334500Y-32650D01*
G01X336950Y-33400D02*
X336550Y-33317D01*
X336200Y-32983D01*
X335900Y-32483D01*
X335700Y-31900D01*
X335600Y-31233D01*
Y-30567D01*
X335700Y-29900D01*
X335900Y-29317D01*
X336200Y-28817D01*
X336550Y-28483D01*
X336950Y-28400D01*
X337350Y-28483D01*
X337700Y-28817D01*
X338000Y-29317D01*
X338200Y-29900D01*
X338300Y-30567D01*
Y-31233D01*
X338200Y-31900D01*
X338000Y-32483D01*
X337700Y-32983D01*
X337350Y-33317D01*
X336950Y-33400D01*
G01X339500D02*
Y-28400D01*
X341800Y-33400D01*
Y-28400D01*
G01X343250Y-33400D02*
Y-28400D01*
X344250D01*
X344650Y-28650D01*
X344950Y-28983D01*
X345200Y-29483D01*
X345400Y-30067D01*
X345450Y-30900D01*
X345400Y-31733D01*
X345200Y-32317D01*
X344950Y-32817D01*
X344650Y-33150D01*
X344250Y-33400D01*
X343250D01*
G01X346950Y-28400D02*
Y-31983D01*
X347150Y-32733D01*
X347550Y-33233D01*
X348050Y-33400D01*
X348550Y-33233D01*
X348950Y-32733D01*
X349150Y-31983D01*
Y-28400D01*
G01X352850Y-28817D02*
X352550Y-28567D01*
X352200Y-28400D01*
X351800D01*
X351350Y-28650D01*
X351000Y-29067D01*
X350750Y-29567D01*
X350550Y-30400D01*
X350500Y-31150D01*
X350600Y-31900D01*
X350750Y-32400D01*
X351050Y-32900D01*
X351400Y-33233D01*
X351750Y-33400D01*
X352100D01*
X352450Y-33233D01*
X352750Y-32983D01*
X353000Y-32650D01*
G01X355450Y-28400D02*
Y-33400D01*
G01X354300Y-28400D02*
X356600D01*
G01X359150Y-33400D02*
X358750Y-33317D01*
X358400Y-32983D01*
X358100Y-32483D01*
X357900Y-31900D01*
X357800Y-31233D01*
Y-30567D01*
X357900Y-29900D01*
X358100Y-29317D01*
X358400Y-28817D01*
X358750Y-28483D01*
X359150Y-28400D01*
X359550Y-28483D01*
X359900Y-28817D01*
X360200Y-29317D01*
X360400Y-29900D01*
X360500Y-30567D01*
Y-31233D01*
X360400Y-31900D01*
X360200Y-32483D01*
X359900Y-32983D01*
X359550Y-33317D01*
X359150Y-33400D01*
G01X361850D02*
Y-28400D01*
X363100D01*
X363500Y-28650D01*
X363750Y-28983D01*
X363850Y-29650D01*
X363750Y-30317D01*
X363450Y-30733D01*
X363100Y-30983D01*
X361850D01*
G01X363100D02*
X363850Y-33400D01*
G01X369600Y-31733D02*
X370900D01*
G01X378750Y-28817D02*
X378450Y-28567D01*
X378100Y-28400D01*
X377700D01*
X377250Y-28650D01*
X376900Y-29067D01*
X376650Y-29567D01*
X376450Y-30400D01*
X376400Y-31150D01*
X376500Y-31900D01*
X376650Y-32400D01*
X376950Y-32900D01*
X377300Y-33233D01*
X377650Y-33400D01*
X378000D01*
X378350Y-33233D01*
X378650Y-32983D01*
X378900Y-32650D01*
G01X381350Y-33400D02*
X380950Y-33317D01*
X380600Y-32983D01*
X380300Y-32483D01*
X380100Y-31900D01*
X380000Y-31233D01*
Y-30567D01*
X380100Y-29900D01*
X380300Y-29317D01*
X380600Y-28817D01*
X380950Y-28483D01*
X381350Y-28400D01*
X381750Y-28483D01*
X382100Y-28817D01*
X382400Y-29317D01*
X382600Y-29900D01*
X382700Y-30567D01*
Y-31233D01*
X382600Y-31900D01*
X382400Y-32483D01*
X382100Y-32983D01*
X381750Y-33317D01*
X381350Y-33400D01*
G01X384050D02*
Y-28400D01*
X385250D01*
X385650Y-28650D01*
X385950Y-29233D01*
X386050Y-29900D01*
X385950Y-30567D01*
X385700Y-31067D01*
X385250Y-31317D01*
X384050D01*
G01X387750Y-33400D02*
Y-28400D01*
X388950D01*
X389350Y-28650D01*
X389650Y-29233D01*
X389750Y-29900D01*
X389650Y-30567D01*
X389400Y-31067D01*
X388950Y-31317D01*
X387750D01*
G01X393450Y-33400D02*
X391450D01*
Y-28400D01*
X393450D01*
G01X392650Y-30817D02*
X391450D01*
G01X395150Y-33400D02*
Y-28400D01*
X396400D01*
X396800Y-28650D01*
X397050Y-28983D01*
X397150Y-29650D01*
X397050Y-30317D01*
X396750Y-30733D01*
X396400Y-30983D01*
X395150D01*
G01X396400D02*
X397150Y-33400D01*
G01X403550Y-28400D02*
X403150Y-28567D01*
X402850Y-28983D01*
X402650Y-29483D01*
X402500Y-30150D01*
X402450Y-30900D01*
X402500Y-31650D01*
X402650Y-32317D01*
X402850Y-32817D01*
X403150Y-33233D01*
X403550Y-33400D01*
X403950Y-33233D01*
X404250Y-32817D01*
X404450Y-32317D01*
X404600Y-31650D01*
X404650Y-30900D01*
X404600Y-30150D01*
X404450Y-29483D01*
X404250Y-28983D01*
X403950Y-28567D01*
X403550Y-28400D01*
G01X407250Y-33567D02*
X407150Y-33483D01*
Y-33317D01*
X407250Y-33233D01*
X407350Y-33317D01*
Y-33483D01*
X407250Y-33567D01*
G01X410850Y-33400D02*
X410950Y-32317D01*
X411100Y-31400D01*
X411300Y-30567D01*
X411550Y-29650D01*
X411950Y-28400D01*
X409950D01*
G01X414650Y-33400D02*
Y-28400D01*
X414050Y-29400D01*
G01Y-33400D02*
X415250D01*
G01X420750D02*
Y-28400D01*
X422050Y-32567D01*
X423350Y-28400D01*
Y-33400D01*
G01X425150Y-28400D02*
X426350D01*
G01X425750D02*
Y-33400D01*
G01X425150D02*
X426350D01*
G01X428450Y-28400D02*
Y-33400D01*
X430450D01*
G01X298850Y-37567D02*
X301050Y-33900D01*
G01X299950Y-33233D02*
Y-38233D01*
G01X301050Y-37567D02*
X298850Y-33900D01*
G01X298450Y-35733D02*
X301450D01*
G01X310000Y-36733D02*
X310400Y-37150D01*
X310850Y-37400D01*
X311250D01*
X311650Y-37150D01*
X311950Y-36733D01*
X312100Y-36150D01*
X312000Y-35567D01*
X311750Y-35067D01*
X311300Y-34733D01*
X310700Y-34567D01*
X310350Y-34233D01*
X310200Y-33650D01*
X310300Y-33067D01*
X310550Y-32650D01*
X310900Y-32400D01*
X311250D01*
X311600Y-32567D01*
X311900Y-32983D01*
G01X313650Y-32400D02*
Y-35983D01*
X313850Y-36733D01*
X314250Y-37233D01*
X314750Y-37400D01*
X315250Y-37233D01*
X315650Y-36733D01*
X315850Y-35983D01*
Y-32400D01*
G01X317450Y-37400D02*
Y-32400D01*
X318700D01*
X319100Y-32650D01*
X319350Y-32983D01*
X319450Y-33650D01*
X319350Y-34317D01*
X319050Y-34733D01*
X318700Y-34983D01*
X317450D01*
G01X318700D02*
X319450Y-37400D01*
G01X321200D02*
Y-32400D01*
X323100D01*
G01X322400Y-34817D02*
X321200D01*
G01X324600Y-37400D02*
X325850Y-32400D01*
X327100Y-37400D01*
G01X326650Y-35650D02*
X325050D01*
G01X330650Y-32817D02*
X330350Y-32567D01*
X330000Y-32400D01*
X329600D01*
X329150Y-32650D01*
X328800Y-33067D01*
X328550Y-33567D01*
X328350Y-34400D01*
X328300Y-35150D01*
X328400Y-35900D01*
X328550Y-36400D01*
X328850Y-36900D01*
X329200Y-37233D01*
X329550Y-37400D01*
X329900D01*
X330250Y-37233D01*
X330550Y-36983D01*
X330800Y-36650D01*
G01X334250Y-37400D02*
X332250D01*
Y-32400D01*
X334250D01*
G01X333450Y-34817D02*
X332250D01*
G01X340000Y-35733D02*
X341300D01*
G01X346800Y-37400D02*
X348050Y-32400D01*
X349300Y-37400D01*
G01X348850Y-35650D02*
X347250D01*
G01X351150Y-32400D02*
X352350D01*
G01X351750D02*
Y-37400D01*
G01X351150D02*
X352350D01*
G01X354450D02*
Y-32400D01*
X355700D01*
X356100Y-32650D01*
X356350Y-32983D01*
X356450Y-33650D01*
X356350Y-34317D01*
X356050Y-34733D01*
X355700Y-34983D01*
X354450D01*
G01X355700D02*
X356450Y-37400D01*
G01X362850Y-32400D02*
X362450Y-32567D01*
X362150Y-32983D01*
X361950Y-33483D01*
X361800Y-34150D01*
X361750Y-34900D01*
X361800Y-35650D01*
X361950Y-36317D01*
X362150Y-36817D01*
X362450Y-37233D01*
X362850Y-37400D01*
X363250Y-37233D01*
X363550Y-36817D01*
X363750Y-36317D01*
X363900Y-35650D01*
X363950Y-34900D01*
X363900Y-34150D01*
X363750Y-33483D01*
X363550Y-32983D01*
X363250Y-32567D01*
X362850Y-32400D01*
G01X368950Y-37400D02*
Y-32400D01*
X370250Y-36567D01*
X371550Y-32400D01*
Y-37400D01*
G01X373350Y-32400D02*
X374550D01*
G01X373950D02*
Y-37400D01*
G01X373350D02*
X374550D01*
G01X376650Y-32400D02*
Y-37400D01*
X378650D01*
G01X298850Y68945D02*
X301050Y72612D01*
G01X299950Y73279D02*
Y68279D01*
G01X301050Y68945D02*
X298850Y72612D01*
G01X298450Y70779D02*
X301450D01*
G01X309950Y69112D02*
Y74112D01*
X310950D01*
X311350Y73862D01*
X311650Y73529D01*
X311900Y73029D01*
X312100Y72445D01*
X312150Y71612D01*
X312100Y70779D01*
X311900Y70195D01*
X311650Y69695D01*
X311350Y69362D01*
X310950Y69112D01*
X309950D01*
G01X314150Y74112D02*
X315350D01*
G01X314750D02*
Y69112D01*
G01X314150D02*
X315350D01*
G01X319450D02*
X317450D01*
Y74112D01*
X319450D01*
G01X318650Y71695D02*
X317450D01*
G01X321150Y74112D02*
Y69112D01*
X323150D01*
G01X326850D02*
X324850D01*
Y74112D01*
X326850D01*
G01X326050Y71695D02*
X324850D01*
G01X330650Y73695D02*
X330350Y73945D01*
X330000Y74112D01*
X329600D01*
X329150Y73862D01*
X328800Y73445D01*
X328550Y72945D01*
X328350Y72112D01*
X328300Y71362D01*
X328400Y70612D01*
X328550Y70112D01*
X328850Y69612D01*
X329200Y69279D01*
X329550Y69112D01*
X329900D01*
X330250Y69279D01*
X330550Y69529D01*
X330800Y69862D01*
G01X333250Y74112D02*
Y69112D01*
G01X332100Y74112D02*
X334400D01*
G01X335950Y69112D02*
Y74112D01*
X337200D01*
X337600Y73862D01*
X337850Y73529D01*
X337950Y72862D01*
X337850Y72195D01*
X337550Y71779D01*
X337200Y71529D01*
X335950D01*
G01X337200D02*
X337950Y69112D01*
G01X340050Y74112D02*
X341250D01*
G01X340650D02*
Y69112D01*
G01X340050D02*
X341250D01*
G01X345450Y73695D02*
X345150Y73945D01*
X344800Y74112D01*
X344400D01*
X343950Y73862D01*
X343600Y73445D01*
X343350Y72945D01*
X343150Y72112D01*
X343100Y71362D01*
X343200Y70612D01*
X343350Y70112D01*
X343650Y69612D01*
X344000Y69279D01*
X344350Y69112D01*
X344700D01*
X345050Y69279D01*
X345350Y69529D01*
X345600Y69862D01*
G01X351100Y70779D02*
X352400D01*
G01X358200Y69112D02*
Y74112D01*
X360100D01*
G01X359400Y71695D02*
X358200D01*
G01X361850Y69112D02*
Y74112D01*
X363100D01*
X363500Y73862D01*
X363750Y73529D01*
X363850Y72862D01*
X363750Y72195D01*
X363450Y71779D01*
X363100Y71529D01*
X361850D01*
G01X363100D02*
X363850Y69112D01*
G01X365900Y70779D02*
X367200D01*
G01X370850Y69112D02*
Y74112D01*
X369000Y70529D01*
X371500D01*
G01X376700Y71195D02*
X377050Y71779D01*
X377350Y72112D01*
X377750Y72279D01*
X378100Y72112D01*
X378350Y71779D01*
X378550Y71279D01*
X378600Y70695D01*
X378550Y70195D01*
X378350Y69695D01*
X378050Y69279D01*
X377700Y69112D01*
X377300Y69279D01*
X376950Y69779D01*
X376750Y70529D01*
X376700Y71362D01*
X376800Y72445D01*
X376950Y73029D01*
X377200Y73612D01*
X377550Y74029D01*
X377900Y74112D01*
X378250Y73945D01*
X378500Y73529D01*
G01X381350Y69112D02*
Y74112D01*
X380750Y73112D01*
G01Y69112D02*
X381950D01*
G01X385050Y68945D02*
X384950Y69029D01*
Y69195D01*
X385050Y69279D01*
X385150Y69195D01*
Y69029D01*
X385050Y68945D01*
G01X387650Y69862D02*
X387950Y69445D01*
X388300Y69195D01*
X388750Y69112D01*
X389200Y69279D01*
X389550Y69612D01*
X389800Y70195D01*
X389850Y70862D01*
X389750Y71529D01*
X389500Y71945D01*
X389150Y72279D01*
X388800Y72362D01*
X388450Y72279D01*
X388000Y71945D01*
X388150Y74112D01*
X389500D01*
G01X392350Y69112D02*
X392450Y70195D01*
X392600Y71112D01*
X392800Y71945D01*
X393050Y72862D01*
X393450Y74112D01*
X391450D01*
G01X398550Y69112D02*
Y74112D01*
X399850Y69945D01*
X401150Y74112D01*
Y69112D01*
G01X402950Y74112D02*
X404150D01*
G01X403550D02*
Y69112D01*
G01X402950D02*
X404150D01*
G01X406250Y74112D02*
Y69112D01*
X408250D01*
G01X298850Y170729D02*
X301050Y174396D01*
G01X299950Y175063D02*
Y170063D01*
G01X301050Y170729D02*
X298850Y174396D01*
G01X298450Y172563D02*
X301450D01*
G01X310000Y171563D02*
X310400Y171146D01*
X310850Y170896D01*
X311250D01*
X311650Y171146D01*
X311950Y171563D01*
X312100Y172146D01*
X312000Y172729D01*
X311750Y173229D01*
X311300Y173563D01*
X310700Y173729D01*
X310350Y174063D01*
X310200Y174646D01*
X310300Y175229D01*
X310550Y175646D01*
X310900Y175896D01*
X311250D01*
X311600Y175729D01*
X311900Y175313D01*
G01X313650Y175896D02*
Y172313D01*
X313850Y171563D01*
X314250Y171063D01*
X314750Y170896D01*
X315250Y171063D01*
X315650Y171563D01*
X315850Y172313D01*
Y175896D01*
G01X317450Y170896D02*
Y175896D01*
X318700D01*
X319100Y175646D01*
X319350Y175313D01*
X319450Y174646D01*
X319350Y173979D01*
X319050Y173563D01*
X318700Y173313D01*
X317450D01*
G01X318700D02*
X319450Y170896D01*
G01X321200D02*
Y175896D01*
X323100D01*
G01X322400Y173479D02*
X321200D01*
G01X324600Y170896D02*
X325850Y175896D01*
X327100Y170896D01*
G01X326650Y172646D02*
X325050D01*
G01X330650Y175479D02*
X330350Y175729D01*
X330000Y175896D01*
X329600D01*
X329150Y175646D01*
X328800Y175229D01*
X328550Y174729D01*
X328350Y173896D01*
X328300Y173146D01*
X328400Y172396D01*
X328550Y171896D01*
X328850Y171396D01*
X329200Y171063D01*
X329550Y170896D01*
X329900D01*
X330250Y171063D01*
X330550Y171313D01*
X330800Y171646D01*
G01X334250Y170896D02*
X332250D01*
Y175896D01*
X334250D01*
G01X333450Y173479D02*
X332250D01*
G01X340000Y172563D02*
X341300D01*
G01X346800Y170896D02*
X348050Y175896D01*
X349300Y170896D01*
G01X348850Y172646D02*
X347250D01*
G01X351150Y175896D02*
X352350D01*
G01X351750D02*
Y170896D01*
G01X351150D02*
X352350D01*
G01X354450D02*
Y175896D01*
X355700D01*
X356100Y175646D01*
X356350Y175313D01*
X356450Y174646D01*
X356350Y173979D01*
X356050Y173563D01*
X355700Y173313D01*
X354450D01*
G01X355700D02*
X356450Y170896D01*
G01X362850Y175896D02*
X362450Y175729D01*
X362150Y175313D01*
X361950Y174813D01*
X361800Y174146D01*
X361750Y173396D01*
X361800Y172646D01*
X361950Y171979D01*
X362150Y171479D01*
X362450Y171063D01*
X362850Y170896D01*
X363250Y171063D01*
X363550Y171479D01*
X363750Y171979D01*
X363900Y172646D01*
X363950Y173396D01*
X363900Y174146D01*
X363750Y174813D01*
X363550Y175313D01*
X363250Y175729D01*
X362850Y175896D01*
G01X368950Y170896D02*
Y175896D01*
X370250Y171729D01*
X371550Y175896D01*
Y170896D01*
G01X373350Y175896D02*
X374550D01*
G01X373950D02*
Y170896D01*
G01X373350D02*
X374550D01*
G01X376650Y175896D02*
Y170896D01*
X378650D01*
G01X291550D02*
Y165896D01*
X293550D01*
G01X296250D02*
Y170896D01*
X295650Y169896D01*
G01Y165896D02*
X296850D01*
G01X299950Y165729D02*
X299850Y165813D01*
Y165979D01*
X299950Y166063D01*
X300050Y165979D01*
Y165813D01*
X299950Y165729D01*
G01Y167979D02*
X299850Y168063D01*
Y168229D01*
X299950Y168313D01*
X300050Y168229D01*
Y168063D01*
X299950Y167979D01*
G01X307350Y170896D02*
Y165896D01*
G01X306200Y170896D02*
X308500D01*
G01X311050Y165896D02*
X310650Y165979D01*
X310300Y166313D01*
X310000Y166813D01*
X309800Y167396D01*
X309700Y168063D01*
Y168729D01*
X309800Y169396D01*
X310000Y169979D01*
X310300Y170479D01*
X310650Y170813D01*
X311050Y170896D01*
X311450Y170813D01*
X311800Y170479D01*
X312100Y169979D01*
X312300Y169396D01*
X312400Y168729D01*
Y168063D01*
X312300Y167396D01*
X312100Y166813D01*
X311800Y166313D01*
X311450Y165979D01*
X311050Y165896D01*
G01X313750D02*
Y170896D01*
X314950D01*
X315350Y170646D01*
X315650Y170063D01*
X315750Y169396D01*
X315650Y168729D01*
X315400Y168229D01*
X314950Y167979D01*
X313750D01*
G01X323250Y170479D02*
X322950Y170729D01*
X322600Y170896D01*
X322200D01*
X321750Y170646D01*
X321400Y170229D01*
X321150Y169729D01*
X320950Y168896D01*
X320900Y168146D01*
X321000Y167396D01*
X321150Y166896D01*
X321450Y166396D01*
X321800Y166063D01*
X322150Y165896D01*
X322500D01*
X322850Y166063D01*
X323150Y166313D01*
X323400Y166646D01*
G01X325850Y165896D02*
X325450Y165979D01*
X325100Y166313D01*
X324800Y166813D01*
X324600Y167396D01*
X324500Y168063D01*
Y168729D01*
X324600Y169396D01*
X324800Y169979D01*
X325100Y170479D01*
X325450Y170813D01*
X325850Y170896D01*
X326250Y170813D01*
X326600Y170479D01*
X326900Y169979D01*
X327100Y169396D01*
X327200Y168729D01*
Y168063D01*
X327100Y167396D01*
X326900Y166813D01*
X326600Y166313D01*
X326250Y165979D01*
X325850Y165896D01*
G01X328400D02*
Y170896D01*
X330700Y165896D01*
Y170896D01*
G01X332150Y165896D02*
Y170896D01*
X333150D01*
X333550Y170646D01*
X333850Y170313D01*
X334100Y169813D01*
X334300Y169229D01*
X334350Y168396D01*
X334300Y167563D01*
X334100Y166979D01*
X333850Y166479D01*
X333550Y166146D01*
X333150Y165896D01*
X332150D01*
G01X335850Y170896D02*
Y167313D01*
X336050Y166563D01*
X336450Y166063D01*
X336950Y165896D01*
X337450Y166063D01*
X337850Y166563D01*
X338050Y167313D01*
Y170896D01*
G01X341750Y170479D02*
X341450Y170729D01*
X341100Y170896D01*
X340700D01*
X340250Y170646D01*
X339900Y170229D01*
X339650Y169729D01*
X339450Y168896D01*
X339400Y168146D01*
X339500Y167396D01*
X339650Y166896D01*
X339950Y166396D01*
X340300Y166063D01*
X340650Y165896D01*
X341000D01*
X341350Y166063D01*
X341650Y166313D01*
X341900Y166646D01*
G01X344350Y170896D02*
Y165896D01*
G01X343200Y170896D02*
X345500D01*
G01X348050Y165896D02*
X347650Y165979D01*
X347300Y166313D01*
X347000Y166813D01*
X346800Y167396D01*
X346700Y168063D01*
Y168729D01*
X346800Y169396D01*
X347000Y169979D01*
X347300Y170479D01*
X347650Y170813D01*
X348050Y170896D01*
X348450Y170813D01*
X348800Y170479D01*
X349100Y169979D01*
X349300Y169396D01*
X349400Y168729D01*
Y168063D01*
X349300Y167396D01*
X349100Y166813D01*
X348800Y166313D01*
X348450Y165979D01*
X348050Y165896D01*
G01X350750D02*
Y170896D01*
X352000D01*
X352400Y170646D01*
X352650Y170313D01*
X352750Y169646D01*
X352650Y168979D01*
X352350Y168563D01*
X352000Y168313D01*
X350750D01*
G01X352000D02*
X352750Y165896D01*
G01X358500Y167563D02*
X359800D01*
G01X367650Y170479D02*
X367350Y170729D01*
X367000Y170896D01*
X366600D01*
X366150Y170646D01*
X365800Y170229D01*
X365550Y169729D01*
X365350Y168896D01*
X365300Y168146D01*
X365400Y167396D01*
X365550Y166896D01*
X365850Y166396D01*
X366200Y166063D01*
X366550Y165896D01*
X366900D01*
X367250Y166063D01*
X367550Y166313D01*
X367800Y166646D01*
G01X370250Y165896D02*
X369850Y165979D01*
X369500Y166313D01*
X369200Y166813D01*
X369000Y167396D01*
X368900Y168063D01*
Y168729D01*
X369000Y169396D01*
X369200Y169979D01*
X369500Y170479D01*
X369850Y170813D01*
X370250Y170896D01*
X370650Y170813D01*
X371000Y170479D01*
X371300Y169979D01*
X371500Y169396D01*
X371600Y168729D01*
Y168063D01*
X371500Y167396D01*
X371300Y166813D01*
X371000Y166313D01*
X370650Y165979D01*
X370250Y165896D01*
G01X372950D02*
Y170896D01*
X374150D01*
X374550Y170646D01*
X374850Y170063D01*
X374950Y169396D01*
X374850Y168729D01*
X374600Y168229D01*
X374150Y167979D01*
X372950D01*
G01X376650Y165896D02*
Y170896D01*
X377850D01*
X378250Y170646D01*
X378550Y170063D01*
X378650Y169396D01*
X378550Y168729D01*
X378300Y168229D01*
X377850Y167979D01*
X376650D01*
G01X382350Y165896D02*
X380350D01*
Y170896D01*
X382350D01*
G01X381550Y168479D02*
X380350D01*
G01X384050Y165896D02*
Y170896D01*
X385300D01*
X385700Y170646D01*
X385950Y170313D01*
X386050Y169646D01*
X385950Y168979D01*
X385650Y168563D01*
X385300Y168313D01*
X384050D01*
G01X385300D02*
X386050Y165896D01*
G01X392450Y170896D02*
X392050Y170729D01*
X391750Y170313D01*
X391550Y169813D01*
X391400Y169146D01*
X391350Y168396D01*
X391400Y167646D01*
X391550Y166979D01*
X391750Y166479D01*
X392050Y166063D01*
X392450Y165896D01*
X392850Y166063D01*
X393150Y166479D01*
X393350Y166979D01*
X393500Y167646D01*
X393550Y168396D01*
X393500Y169146D01*
X393350Y169813D01*
X393150Y170313D01*
X392850Y170729D01*
X392450Y170896D01*
G01X396150Y165729D02*
X396050Y165813D01*
Y165979D01*
X396150Y166063D01*
X396250Y165979D01*
Y165813D01*
X396150Y165729D01*
G01X399750Y165896D02*
X399850Y166979D01*
X400000Y167896D01*
X400200Y168729D01*
X400450Y169646D01*
X400850Y170896D01*
X398850D01*
G01X403550Y165896D02*
Y170896D01*
X402950Y169896D01*
G01Y165896D02*
X404150D01*
G01X409650D02*
Y170896D01*
X410950Y166729D01*
X412250Y170896D01*
Y165896D01*
G01X414050Y170896D02*
X415250D01*
G01X414650D02*
Y165896D01*
G01X414050D02*
X415250D01*
G01X417350Y170896D02*
Y165896D01*
X419350D01*
M02*
