G04 ================== begin FILE IDENTIFICATION RECORD ==================*
G04 Layout Name:  LAYOUT.brd*
G04 Film Name:    SSTOP*
G04 File Format:  Gerber RS274X*
G04 File Origin:  Cadence Allegro 16.6-2015-S059*
G04 Origin Date:  Sat Dec 06 18:39:30 2025*
G04 *
G04 Layer:  REF DES/SILKSCREEN_TOP*
G04 Layer:  PACKAGE GEOMETRY/SILKSCREEN_TOP*
G04 Layer:  BOARD GEOMETRY/SILKSCREEN_TOP*
G04 *
G04 Offset:    (0.00 0.00)*
G04 Mirror:    No*
G04 Mode:      Positive*
G04 Rotation:  0*
G04 FullContactRelief:  No*
G04 UndefLineWidth:     7.00*
G04 ================== end FILE IDENTIFICATION RECORD ====================*
%FSLAX25Y25*MOIN*%
%IR0*IPPOS*OFA0.00000B0.00000*MIA0B0*SFA1.00000B1.00000*%
%ADD10C,.006*%
%ADD11C,.007*%
%ADD12C,.00787*%
G75*
%LPD*%
G75*
G54D10*
G01X15300Y61250D02*
X31300D01*
G01Y53750D02*
X15300D01*
G01D02*
Y61250D01*
G01X24700Y98750D02*
X8700D01*
G01D02*
Y106250D01*
G01D02*
X24700D01*
G01X23800Y123750D02*
X7800D01*
G01D02*
Y131250D01*
G01Y118750D02*
X23800D01*
G01Y111250D02*
X7800D01*
G01D02*
Y118750D01*
G01Y131250D02*
X23800D01*
G01X48800Y43750D02*
Y36250D01*
G01D02*
X32800D01*
G01D02*
Y43750D01*
G01X38200Y62650D02*
X54000D01*
G01Y52350D02*
X38200D01*
G01D02*
Y62650D01*
G01X32800Y43750D02*
X48800D01*
G01X31300Y61250D02*
Y53750D01*
G01X24700Y106250D02*
Y98750D01*
G01X23800Y131250D02*
Y123750D01*
G01Y118750D02*
Y111250D01*
G01X41250Y132800D02*
Y148800D01*
G01D02*
X48750D01*
G01D02*
Y132800D01*
G01D02*
X41250D01*
G01X94300Y19850D02*
X78500D01*
G01D02*
Y24150D01*
G01D02*
X77650Y25000D01*
G01D02*
X78500Y25850D01*
G01D02*
Y30150D01*
G01D02*
X94300D01*
G01X72200Y21250D02*
X56200D01*
G01D02*
Y28750D01*
G01D02*
X72200D01*
G01D02*
Y21250D01*
G01Y36250D02*
X56200D01*
G01D02*
Y43750D01*
G01X72200D02*
Y36250D01*
G01X54000Y62650D02*
Y58350D01*
G01D02*
X54850Y57500D01*
G01D02*
X54000Y56650D01*
G01D02*
Y52350D01*
G01X63200Y62650D02*
X79000D01*
G01D02*
Y58350D01*
G01D02*
X79850Y57500D01*
G01D02*
X79000Y56650D01*
G01D02*
Y52350D01*
G01D02*
X63200D01*
G01D02*
Y62650D01*
G01X56200Y43750D02*
X72200D01*
G01X62650Y149300D02*
Y133500D01*
G01D02*
X58350D01*
G01D02*
X57500Y132650D01*
G01D02*
X56650Y133500D01*
G01D02*
X52350D01*
G01D02*
Y149300D01*
G01D02*
X62650D01*
G01X73750Y149700D02*
Y133700D01*
G01D02*
X66250D01*
G01D02*
Y149700D01*
G01D02*
X73750D01*
G01X86250Y133700D02*
X78750D01*
G01D02*
Y149700D01*
G01D02*
X86250D01*
G01X94300Y30150D02*
Y19850D01*
G01X114700Y58750D02*
X98700D01*
G01D02*
Y66250D01*
G01D02*
X114700D01*
G01Y46250D02*
X98700D01*
G01D02*
Y53750D01*
G01D02*
X114700D01*
G01X99700Y93750D02*
X83700D01*
G01D02*
Y101250D01*
G01X99700D02*
Y93750D01*
G01X83700Y101250D02*
X99700D01*
G01X86250Y149700D02*
Y133700D01*
G01X147200Y38750D02*
X131200D01*
G01D02*
Y46250D01*
G01D02*
X147200D01*
G01X114700Y66250D02*
Y58750D01*
G01Y53750D02*
Y46250D01*
G01X148800Y63750D02*
X132800D01*
G01D02*
Y71250D01*
G01Y58750D02*
X148800D01*
G01Y51250D02*
X132800D01*
G01D02*
Y58750D01*
G01Y71250D02*
X148800D01*
G01X147200Y46250D02*
Y38750D01*
G01X148800Y71250D02*
Y63750D01*
G01Y58750D02*
Y51250D01*
G54D11*
G01X5900Y11000D02*
X7100D01*
G01X6500D02*
Y6000D01*
G01X5900D02*
X7100D01*
G01X10200D02*
X9800Y6083D01*
X9450Y6417D01*
X9150Y6917D01*
X8950Y7500D01*
X8850Y8167D01*
Y8833D01*
X8950Y9500D01*
X9150Y10083D01*
X9450Y10583D01*
X9800Y10917D01*
X10200Y11000D01*
X10600Y10917D01*
X10950Y10583D01*
X11250Y10083D01*
X11450Y9500D01*
X11550Y8833D01*
Y8167D01*
X11450Y7500D01*
X11250Y6917D01*
X10950Y6417D01*
X10600Y6083D01*
X10200Y6000D01*
G01X12750D02*
Y11000D01*
X15050Y6000D01*
Y11000D01*
G01X18600Y6000D02*
X16600D01*
Y11000D01*
X18600D01*
G01X17800Y8583D02*
X16600D01*
G01X20250Y6667D02*
X20650Y6250D01*
X21100Y6000D01*
X21500D01*
X21900Y6250D01*
X22200Y6667D01*
X22350Y7250D01*
X22250Y7833D01*
X22000Y8333D01*
X21550Y8667D01*
X20950Y8833D01*
X20600Y9167D01*
X20450Y9750D01*
X20550Y10333D01*
X20800Y10750D01*
X21150Y11000D01*
X21500D01*
X21850Y10833D01*
X22150Y10417D01*
G01X26100Y10583D02*
X25800Y10833D01*
X25450Y11000D01*
X25050D01*
X24600Y10750D01*
X24250Y10333D01*
X24000Y9833D01*
X23800Y9000D01*
X23750Y8250D01*
X23850Y7500D01*
X24000Y7000D01*
X24300Y6500D01*
X24650Y6167D01*
X25000Y6000D01*
X25350D01*
X25700Y6167D01*
X26000Y6417D01*
X26250Y6750D01*
G01X27600Y11000D02*
Y7417D01*
X27800Y6667D01*
X28200Y6167D01*
X28700Y6000D01*
X29200Y6167D01*
X29600Y6667D01*
X29800Y7417D01*
Y11000D01*
G01X37100Y6000D02*
X35100D01*
Y11000D01*
X37100D01*
G01X36300Y8583D02*
X35100D01*
G01X38700Y6000D02*
Y11000D01*
X39700D01*
X40100Y10750D01*
X40400Y10417D01*
X40650Y9917D01*
X40850Y9333D01*
X40900Y8500D01*
X40850Y7667D01*
X40650Y7083D01*
X40400Y6583D01*
X40100Y6250D01*
X39700Y6000D01*
X38700D01*
G01X42400Y11000D02*
Y7417D01*
X42600Y6667D01*
X43000Y6167D01*
X43500Y6000D01*
X44000Y6167D01*
X44400Y6667D01*
X44600Y7417D01*
Y11000D01*
G01X45950Y6000D02*
X47200Y11000D01*
X48450Y6000D01*
G01X48000Y7750D02*
X46400D01*
G01X49900Y6000D02*
Y11000D01*
X51150D01*
X51550Y10750D01*
X51800Y10417D01*
X51900Y9750D01*
X51800Y9083D01*
X51500Y8667D01*
X51150Y8417D01*
X49900D01*
G01X51150D02*
X51900Y6000D01*
G01X53500D02*
Y11000D01*
X54500D01*
X54900Y10750D01*
X55200Y10417D01*
X55450Y9917D01*
X55650Y9333D01*
X55700Y8500D01*
X55650Y7667D01*
X55450Y7083D01*
X55200Y6583D01*
X54900Y6250D01*
X54500Y6000D01*
X53500D01*
G01X60850D02*
Y11000D01*
X63150Y6000D01*
Y11000D01*
G01X65100D02*
X66300D01*
G01X65700D02*
Y6000D01*
G01X65100D02*
X66300D01*
G01X70500Y10583D02*
X70200Y10833D01*
X69850Y11000D01*
X69450D01*
X69000Y10750D01*
X68650Y10333D01*
X68400Y9833D01*
X68200Y9000D01*
X68150Y8250D01*
X68250Y7500D01*
X68400Y7000D01*
X68700Y6500D01*
X69050Y6167D01*
X69400Y6000D01*
X69750D01*
X70100Y6167D01*
X70400Y6417D01*
X70650Y6750D01*
G01X73100Y6000D02*
X72700Y6083D01*
X72350Y6417D01*
X72050Y6917D01*
X71850Y7500D01*
X71750Y8167D01*
Y8833D01*
X71850Y9500D01*
X72050Y10083D01*
X72350Y10583D01*
X72700Y10917D01*
X73100Y11000D01*
X73500Y10917D01*
X73850Y10583D01*
X74150Y10083D01*
X74350Y9500D01*
X74450Y8833D01*
Y8167D01*
X74350Y7500D01*
X74150Y6917D01*
X73850Y6417D01*
X73500Y6083D01*
X73100Y6000D01*
G01X75800Y11000D02*
Y6000D01*
X77800D01*
G01X79250D02*
X80500Y11000D01*
X81750Y6000D01*
G01X81300Y7750D02*
X79700D01*
G01X85200Y6000D02*
X83200D01*
Y11000D01*
X85200D01*
G01X84400Y8583D02*
X83200D01*
G01X92200Y6000D02*
Y11000D01*
X90350Y7417D01*
X92850D01*
G01X95900Y6000D02*
Y11000D01*
X94050Y7417D01*
X96550D01*
G01X99600Y6000D02*
Y11000D01*
X97750Y7417D01*
X100250D01*
G01X101600Y6000D02*
Y11000D01*
X102600D01*
X103000Y10750D01*
X103300Y10417D01*
X103550Y9917D01*
X103750Y9333D01*
X103800Y8500D01*
X103750Y7667D01*
X103550Y7083D01*
X103300Y6583D01*
X103000Y6250D01*
X102600Y6000D01*
X101600D01*
G01X18567Y31000D02*
X19400Y28000D01*
X20233Y31000D01*
G01X22667Y28000D02*
X21333D01*
Y31000D01*
X22667D01*
G01X22133Y29550D02*
X21333D01*
G01X25267Y28000D02*
X23933D01*
Y31000D01*
X25267D01*
G01X24733Y29550D02*
X23933D01*
G01X20000Y152000D02*
X25500D01*
G01X7500Y135000D02*
X28000D01*
Y150000D01*
X7000D01*
Y135000D01*
X7500D01*
G01X24500Y25500D02*
X28000D01*
G01X26500Y27000D02*
Y24000D01*
G01X30000Y17500D02*
X50500D01*
Y32500D01*
X29500D01*
Y17500D01*
X30000D01*
G01X27333Y40000D02*
Y43000D01*
X28167D01*
X28433Y42850D01*
X28600Y42650D01*
X28667Y42250D01*
X28600Y41850D01*
X28400Y41600D01*
X28167Y41450D01*
X27333D01*
G01X28167D02*
X28667Y40000D01*
G01X29867Y40600D02*
X30067Y40250D01*
X30333Y40050D01*
X30633Y40000D01*
X30900Y40050D01*
X31167Y40300D01*
X31333Y40600D01*
X31367Y40900D01*
X31300Y41250D01*
X31067Y41500D01*
X30833Y41600D01*
X30533D01*
G01X30833D02*
X31033Y41750D01*
X31200Y42000D01*
X31267Y42300D01*
X31200Y42600D01*
X31033Y42850D01*
X30733Y43000D01*
X30433Y42950D01*
X30133Y42750D01*
G01X41267Y64500D02*
Y67500D01*
X41933D01*
X42200Y67350D01*
X42400Y67150D01*
X42567Y66850D01*
X42700Y66500D01*
X42733Y66000D01*
X42700Y65500D01*
X42567Y65150D01*
X42400Y64850D01*
X42200Y64650D01*
X41933Y64500D01*
X41267D01*
G01X43967Y67000D02*
X44167Y67300D01*
X44400Y67450D01*
X44667Y67500D01*
X45000Y67400D01*
X45233Y67150D01*
X45300Y66850D01*
X45267Y66550D01*
X45133Y66300D01*
X44467Y65800D01*
X44167Y65450D01*
X43967Y64950D01*
X43900Y64500D01*
X45300D01*
G01X20833Y62500D02*
Y65500D01*
X21667D01*
X21933Y65350D01*
X22100Y65150D01*
X22167Y64750D01*
X22100Y64350D01*
X21900Y64100D01*
X21667Y63950D01*
X20833D01*
G01X21667D02*
X22167Y62500D01*
G01X23467Y65000D02*
X23667Y65300D01*
X23900Y65450D01*
X24167Y65500D01*
X24500Y65400D01*
X24733Y65150D01*
X24800Y64850D01*
X24767Y64550D01*
X24633Y64300D01*
X23967Y63800D01*
X23667Y63450D01*
X23467Y62950D01*
X23400Y62500D01*
X24800D01*
G01X26067Y65000D02*
X26267Y65300D01*
X26500Y65450D01*
X26767Y65500D01*
X27100Y65400D01*
X27333Y65150D01*
X27400Y64850D01*
X27367Y64550D01*
X27233Y64300D01*
X26567Y63800D01*
X26267Y63450D01*
X26067Y62950D01*
X26000Y62500D01*
X27400D01*
G01X26833Y100000D02*
Y103000D01*
X27667D01*
X27933Y102850D01*
X28100Y102650D01*
X28167Y102250D01*
X28100Y101850D01*
X27900Y101600D01*
X27667Y101450D01*
X26833D01*
G01X27667D02*
X28167Y100000D01*
G01X30100D02*
Y103000D01*
X29700Y102400D01*
G01Y100000D02*
X30500D01*
G01X32133Y100350D02*
X32367Y100100D01*
X32633Y100000D01*
X32900Y100100D01*
X33133Y100400D01*
X33300Y100850D01*
X33367Y101300D01*
Y101850D01*
X33300Y102300D01*
X33133Y102700D01*
X32933Y102900D01*
X32700Y103000D01*
X32433Y102900D01*
X32233Y102700D01*
X32100Y102400D01*
X32033Y102000D01*
X32100Y101650D01*
X32267Y101300D01*
X32467Y101100D01*
X32700Y101050D01*
X32967Y101150D01*
X33167Y101400D01*
X33367Y101850D01*
G01X42500Y92000D02*
X42233Y92050D01*
X42000Y92250D01*
X41800Y92550D01*
X41667Y92900D01*
X41600Y93300D01*
Y93700D01*
X41667Y94100D01*
X41800Y94450D01*
X42000Y94750D01*
X42233Y94950D01*
X42500Y95000D01*
X42767Y94950D01*
X43000Y94750D01*
X43200Y94450D01*
X43333Y94100D01*
X43400Y93700D01*
Y93300D01*
X43333Y92900D01*
X43200Y92550D01*
X43000Y92250D01*
X42767Y92050D01*
X42500Y92000D01*
G01X42767Y92800D02*
X43167Y92000D01*
G01X44367Y92450D02*
X44567Y92200D01*
X44800Y92050D01*
X45100Y92000D01*
X45400Y92100D01*
X45633Y92300D01*
X45800Y92650D01*
X45833Y93050D01*
X45767Y93450D01*
X45600Y93700D01*
X45367Y93900D01*
X45133Y93950D01*
X44900Y93900D01*
X44600Y93700D01*
X44700Y95000D01*
X45600D01*
G01X48500Y88500D02*
Y90000D01*
X39500D01*
Y84500D01*
G01X48500Y74500D02*
Y73000D01*
X39500D01*
Y78500D01*
G01X48500Y82500D02*
Y80500D01*
G01X25067Y133000D02*
X25900Y130000D01*
X26733Y133000D01*
G01X28100D02*
X28900D01*
G01X28500D02*
Y130000D01*
G01X28100D02*
X28900D01*
G01X30333D02*
Y133000D01*
X31867Y130000D01*
Y133000D01*
G01X43833Y128000D02*
Y131000D01*
X44667D01*
X44933Y130850D01*
X45100Y130650D01*
X45167Y130250D01*
X45100Y129850D01*
X44900Y129600D01*
X44667Y129450D01*
X43833D01*
G01X44667D02*
X45167Y128000D01*
G01X46467Y130500D02*
X46667Y130800D01*
X46900Y130950D01*
X47167Y131000D01*
X47500Y130900D01*
X47733Y130650D01*
X47800Y130350D01*
X47767Y130050D01*
X47633Y129800D01*
X46967Y129300D01*
X46667Y128950D01*
X46467Y128450D01*
X46400Y128000D01*
X47800D01*
G01X50100D02*
Y131000D01*
X48867Y128850D01*
X50533D01*
G01X28233Y127750D02*
X28033Y127900D01*
X27800Y128000D01*
X27533D01*
X27233Y127850D01*
X27000Y127600D01*
X26833Y127300D01*
X26700Y126800D01*
X26667Y126350D01*
X26733Y125900D01*
X26833Y125600D01*
X27033Y125300D01*
X27267Y125100D01*
X27500Y125000D01*
X27733D01*
X27967Y125100D01*
X28167Y125250D01*
X28333Y125450D01*
G01X30500Y125000D02*
Y128000D01*
X29267Y125850D01*
X30933D01*
G01X27233Y116250D02*
X27033Y116400D01*
X26800Y116500D01*
X26533D01*
X26233Y116350D01*
X26000Y116100D01*
X25833Y115800D01*
X25700Y115300D01*
X25667Y114850D01*
X25733Y114400D01*
X25833Y114100D01*
X26033Y113800D01*
X26267Y113600D01*
X26500Y113500D01*
X26733D01*
X26967Y113600D01*
X27167Y113750D01*
X27333Y113950D01*
G01X29100Y113500D02*
X29333Y113550D01*
X29600Y113700D01*
X29767Y113950D01*
X29833Y114300D01*
X29767Y114650D01*
X29567Y114950D01*
X29267Y115100D01*
X28933D01*
X28733Y115200D01*
X28567Y115450D01*
X28500Y115800D01*
X28600Y116150D01*
X28833Y116400D01*
X29100Y116500D01*
X29367Y116400D01*
X29600Y116150D01*
X29700Y115800D01*
X29633Y115450D01*
X29467Y115200D01*
X29267Y115100D01*
X28933D01*
X28633Y114950D01*
X28433Y114650D01*
X28367Y114300D01*
X28433Y113950D01*
X28600Y113700D01*
X28867Y113550D01*
X29100Y113500D01*
G01X35000Y105000D02*
X34733Y105050D01*
X34500Y105250D01*
X34300Y105550D01*
X34167Y105900D01*
X34100Y106300D01*
Y106700D01*
X34167Y107100D01*
X34300Y107450D01*
X34500Y107750D01*
X34733Y107950D01*
X35000Y108000D01*
X35267Y107950D01*
X35500Y107750D01*
X35700Y107450D01*
X35833Y107100D01*
X35900Y106700D01*
Y106300D01*
X35833Y105900D01*
X35700Y105550D01*
X35500Y105250D01*
X35267Y105050D01*
X35000Y105000D01*
G01X35267Y105800D02*
X35667Y105000D01*
G01X37600D02*
Y108000D01*
X37200Y107400D01*
G01Y105000D02*
X38000D01*
G01X48500Y121000D02*
Y122500D01*
X39500D01*
Y117000D01*
G01X48500Y107000D02*
Y105500D01*
X39500D01*
Y111000D01*
G01X48500Y115000D02*
Y113000D01*
G01X34067Y133000D02*
X34900Y130000D01*
X35733Y133000D01*
G01X37500Y130000D02*
X37233Y130050D01*
X37000Y130250D01*
X36800Y130550D01*
X36667Y130900D01*
X36600Y131300D01*
Y131700D01*
X36667Y132100D01*
X36800Y132450D01*
X37000Y132750D01*
X37233Y132950D01*
X37500Y133000D01*
X37767Y132950D01*
X38000Y132750D01*
X38200Y132450D01*
X38333Y132100D01*
X38400Y131700D01*
Y131300D01*
X38333Y130900D01*
X38200Y130550D01*
X38000Y130250D01*
X37767Y130050D01*
X37500Y130000D01*
G01X40100D02*
Y133000D01*
X39700Y132400D01*
G01Y130000D02*
X40500D01*
G01X30000Y148000D02*
Y136500D01*
X40000D01*
Y148500D01*
X30000D01*
Y148000D01*
G01X52000Y25500D02*
X55000D01*
G01X61833Y29500D02*
Y32500D01*
X62667D01*
X62933Y32350D01*
X63100Y32150D01*
X63167Y31750D01*
X63100Y31350D01*
X62900Y31100D01*
X62667Y30950D01*
X61833D01*
G01X62667D02*
X63167Y29500D01*
G01X64467Y32000D02*
X64667Y32300D01*
X64900Y32450D01*
X65167Y32500D01*
X65500Y32400D01*
X65733Y32150D01*
X65800Y31850D01*
X65767Y31550D01*
X65633Y31300D01*
X64967Y30800D01*
X64667Y30450D01*
X64467Y29950D01*
X64400Y29500D01*
X65800D01*
G01X66967Y29950D02*
X67167Y29700D01*
X67400Y29550D01*
X67700Y29500D01*
X68000Y29600D01*
X68233Y29800D01*
X68400Y30150D01*
X68433Y30550D01*
X68367Y30950D01*
X68200Y31200D01*
X67967Y31400D01*
X67733Y31450D01*
X67500Y31400D01*
X67200Y31200D01*
X67300Y32500D01*
X68200D01*
G01X73833Y39000D02*
Y42000D01*
X74667D01*
X74933Y41850D01*
X75100Y41650D01*
X75167Y41250D01*
X75100Y40850D01*
X74900Y40600D01*
X74667Y40450D01*
X73833D01*
G01X74667D02*
X75167Y39000D01*
G01X76467Y41500D02*
X76667Y41800D01*
X76900Y41950D01*
X77167Y42000D01*
X77500Y41900D01*
X77733Y41650D01*
X77800Y41350D01*
X77767Y41050D01*
X77633Y40800D01*
X76967Y40300D01*
X76667Y39950D01*
X76467Y39450D01*
X76400Y39000D01*
X77800D01*
G01X79700D02*
Y42000D01*
X79300Y41400D01*
G01Y39000D02*
X80100D01*
G01X65767Y64000D02*
Y67000D01*
X66433D01*
X66700Y66850D01*
X66900Y66650D01*
X67067Y66350D01*
X67200Y66000D01*
X67233Y65500D01*
X67200Y65000D01*
X67067Y64650D01*
X66900Y64350D01*
X66700Y64150D01*
X66433Y64000D01*
X65767D01*
G01X68367Y64600D02*
X68567Y64250D01*
X68833Y64050D01*
X69133Y64000D01*
X69400Y64050D01*
X69667Y64300D01*
X69833Y64600D01*
X69867Y64900D01*
X69800Y65250D01*
X69567Y65500D01*
X69333Y65600D01*
X69033D01*
G01X69333D02*
X69533Y65750D01*
X69700Y66000D01*
X69767Y66300D01*
X69700Y66600D01*
X69533Y66850D01*
X69233Y67000D01*
X68933Y66950D01*
X68633Y66750D01*
G01X66000Y92500D02*
X65733Y92550D01*
X65500Y92750D01*
X65300Y93050D01*
X65167Y93400D01*
X65100Y93800D01*
Y94200D01*
X65167Y94600D01*
X65300Y94950D01*
X65500Y95250D01*
X65733Y95450D01*
X66000Y95500D01*
X66267Y95450D01*
X66500Y95250D01*
X66700Y94950D01*
X66833Y94600D01*
X66900Y94200D01*
Y93800D01*
X66833Y93400D01*
X66700Y93050D01*
X66500Y92750D01*
X66267Y92550D01*
X66000Y92500D01*
G01X66267Y93300D02*
X66667Y92500D01*
G01X68533D02*
X68600Y93150D01*
X68700Y93700D01*
X68833Y94200D01*
X69000Y94750D01*
X69267Y95500D01*
X67933D01*
G01X71000Y88500D02*
Y90000D01*
X62000D01*
Y84500D01*
G01X71000Y74500D02*
Y73000D01*
X62000D01*
Y78500D01*
G01X71000Y82500D02*
Y80500D01*
G01X54267Y128000D02*
Y131000D01*
X54933D01*
X55200Y130850D01*
X55400Y130650D01*
X55567Y130350D01*
X55700Y130000D01*
X55733Y129500D01*
X55700Y129000D01*
X55567Y128650D01*
X55400Y128350D01*
X55200Y128150D01*
X54933Y128000D01*
X54267D01*
G01X57600D02*
Y131000D01*
X57200Y130400D01*
G01Y128000D02*
X58000D01*
G01X69333D02*
Y131000D01*
X70167D01*
X70433Y130850D01*
X70600Y130650D01*
X70667Y130250D01*
X70600Y129850D01*
X70400Y129600D01*
X70167Y129450D01*
X69333D01*
G01X70167D02*
X70667Y128000D01*
G01X71967Y130500D02*
X72167Y130800D01*
X72400Y130950D01*
X72667Y131000D01*
X73000Y130900D01*
X73233Y130650D01*
X73300Y130350D01*
X73267Y130050D01*
X73133Y129800D01*
X72467Y129300D01*
X72167Y128950D01*
X71967Y128450D01*
X71900Y128000D01*
X73300D01*
G01X75200Y131000D02*
X74933Y130900D01*
X74733Y130650D01*
X74600Y130350D01*
X74500Y129950D01*
X74467Y129500D01*
X74500Y129050D01*
X74600Y128650D01*
X74733Y128350D01*
X74933Y128100D01*
X75200Y128000D01*
X75467Y128100D01*
X75667Y128350D01*
X75800Y128650D01*
X75900Y129050D01*
X75933Y129500D01*
X75900Y129950D01*
X75800Y130350D01*
X75667Y130650D01*
X75467Y130900D01*
X75200Y131000D01*
G01X56000Y104000D02*
X55733Y104050D01*
X55500Y104250D01*
X55300Y104550D01*
X55167Y104900D01*
X55100Y105300D01*
Y105700D01*
X55167Y106100D01*
X55300Y106450D01*
X55500Y106750D01*
X55733Y106950D01*
X56000Y107000D01*
X56267Y106950D01*
X56500Y106750D01*
X56700Y106450D01*
X56833Y106100D01*
X56900Y105700D01*
Y105300D01*
X56833Y104900D01*
X56700Y104550D01*
X56500Y104250D01*
X56267Y104050D01*
X56000Y104000D01*
G01X56267Y104800D02*
X56667Y104000D01*
G01X57967Y106500D02*
X58167Y106800D01*
X58400Y106950D01*
X58667Y107000D01*
X59000Y106900D01*
X59233Y106650D01*
X59300Y106350D01*
X59267Y106050D01*
X59133Y105800D01*
X58467Y105300D01*
X58167Y104950D01*
X57967Y104450D01*
X57900Y104000D01*
X59300D01*
G01X68500Y123500D02*
Y125000D01*
X59500D01*
Y119500D01*
G01X68500Y109500D02*
Y108000D01*
X59500D01*
Y113500D01*
G01X68500Y117500D02*
Y115500D01*
G01X96100Y17583D02*
X95800Y17833D01*
X95450Y18000D01*
X95050D01*
X94600Y17750D01*
X94250Y17333D01*
X94000Y16833D01*
X93800Y16000D01*
X93750Y15250D01*
X93850Y14500D01*
X94000Y14000D01*
X94300Y13500D01*
X94650Y13167D01*
X95000Y13000D01*
X95350D01*
X95700Y13167D01*
X96000Y13417D01*
X96250Y13750D01*
G01X99700Y13000D02*
X97700D01*
Y18000D01*
X99700D01*
G01X98900Y15583D02*
X97700D01*
G01X101450Y13000D02*
Y18000D01*
X103350D01*
G01X102650Y15583D02*
X101450D01*
G01X105450Y14667D02*
X106750D01*
G01X108800Y13000D02*
Y18000D01*
X110000D01*
X110400Y17750D01*
X110700Y17167D01*
X110800Y16500D01*
X110700Y15833D01*
X110450Y15333D01*
X110000Y15083D01*
X108800D01*
G01X112800Y13000D02*
Y16333D01*
G01Y15667D02*
X113050Y16000D01*
X113300Y16250D01*
X113650Y16333D01*
X113900Y16250D01*
X114200Y16000D01*
G01X119950Y17167D02*
X120250Y17667D01*
X120600Y17917D01*
X121000Y18000D01*
X121500Y17833D01*
X121850Y17417D01*
X121950Y16917D01*
X121900Y16417D01*
X121700Y16000D01*
X120700Y15167D01*
X120250Y14583D01*
X119950Y13750D01*
X119850Y13000D01*
X121950D01*
G01X124600Y18000D02*
X124200Y17833D01*
X123900Y17417D01*
X123700Y16917D01*
X123550Y16250D01*
X123500Y15500D01*
X123550Y14750D01*
X123700Y14083D01*
X123900Y13583D01*
X124200Y13167D01*
X124600Y13000D01*
X125000Y13167D01*
X125300Y13583D01*
X125500Y14083D01*
X125650Y14750D01*
X125700Y15500D01*
X125650Y16250D01*
X125500Y16917D01*
X125300Y17417D01*
X125000Y17833D01*
X124600Y18000D01*
G01X127350Y17167D02*
X127650Y17667D01*
X128000Y17917D01*
X128400Y18000D01*
X128900Y17833D01*
X129250Y17417D01*
X129350Y16917D01*
X129300Y16417D01*
X129100Y16000D01*
X128100Y15167D01*
X127650Y14583D01*
X127350Y13750D01*
X127250Y13000D01*
X129350D01*
G01X130900Y13750D02*
X131200Y13333D01*
X131550Y13083D01*
X132000Y13000D01*
X132450Y13167D01*
X132800Y13500D01*
X133050Y14083D01*
X133100Y14750D01*
X133000Y15417D01*
X132750Y15833D01*
X132400Y16167D01*
X132050Y16250D01*
X131700Y16167D01*
X131250Y15833D01*
X131400Y18000D01*
X132750D01*
G01X135050Y14667D02*
X136350D01*
G01X138450Y17167D02*
X138750Y17667D01*
X139100Y17917D01*
X139500Y18000D01*
X140000Y17833D01*
X140350Y17417D01*
X140450Y16917D01*
X140400Y16417D01*
X140200Y16000D01*
X139200Y15167D01*
X138750Y14583D01*
X138450Y13750D01*
X138350Y13000D01*
X140450D01*
G01X143100Y18000D02*
X142700Y17833D01*
X142400Y17417D01*
X142200Y16917D01*
X142050Y16250D01*
X142000Y15500D01*
X142050Y14750D01*
X142200Y14083D01*
X142400Y13583D01*
X142700Y13167D01*
X143100Y13000D01*
X143500Y13167D01*
X143800Y13583D01*
X144000Y14083D01*
X144150Y14750D01*
X144200Y15500D01*
X144150Y16250D01*
X144000Y16917D01*
X143800Y17417D01*
X143500Y17833D01*
X143100Y18000D01*
G01X145850Y17167D02*
X146150Y17667D01*
X146500Y17917D01*
X146900Y18000D01*
X147400Y17833D01*
X147750Y17417D01*
X147850Y16917D01*
X147800Y16417D01*
X147600Y16000D01*
X146600Y15167D01*
X146150Y14583D01*
X145850Y13750D01*
X145750Y13000D01*
X147850D01*
G01X149550Y15083D02*
X149900Y15667D01*
X150200Y16000D01*
X150600Y16167D01*
X150950Y16000D01*
X151200Y15667D01*
X151400Y15167D01*
X151450Y14583D01*
X151400Y14083D01*
X151200Y13583D01*
X150900Y13167D01*
X150550Y13000D01*
X150150Y13167D01*
X149800Y13667D01*
X149600Y14417D01*
X149550Y15250D01*
X149650Y16333D01*
X149800Y16917D01*
X150050Y17500D01*
X150400Y17917D01*
X150750Y18000D01*
X151100Y17833D01*
X151350Y17417D01*
G01X84267Y30500D02*
Y33500D01*
X84933D01*
X85200Y33350D01*
X85400Y33150D01*
X85567Y32850D01*
X85700Y32500D01*
X85733Y32000D01*
X85700Y31500D01*
X85567Y31150D01*
X85400Y30850D01*
X85200Y30650D01*
X84933Y30500D01*
X84267D01*
G01X88000D02*
Y33500D01*
X86767Y31350D01*
X88433D01*
G01X110000Y33000D02*
Y21500D01*
X120000D01*
Y33500D01*
X110000D01*
Y33000D01*
G01X91333Y61500D02*
Y64500D01*
X92167D01*
X92433Y64350D01*
X92600Y64150D01*
X92667Y63750D01*
X92600Y63350D01*
X92400Y63100D01*
X92167Y62950D01*
X91333D01*
G01X92167D02*
X92667Y61500D01*
G01X94600D02*
Y64500D01*
X94200Y63900D01*
G01Y61500D02*
X95000D01*
G01X97133D02*
X97200Y62150D01*
X97300Y62700D01*
X97433Y63200D01*
X97600Y63750D01*
X97867Y64500D01*
X96533D01*
G01X90333Y49000D02*
Y52000D01*
X91167D01*
X91433Y51850D01*
X91600Y51650D01*
X91667Y51250D01*
X91600Y50850D01*
X91400Y50600D01*
X91167Y50450D01*
X90333D01*
G01X91167D02*
X91667Y49000D01*
G01X93600D02*
Y52000D01*
X93200Y51400D01*
G01Y49000D02*
X94000D01*
G01X95567Y50250D02*
X95800Y50600D01*
X96000Y50800D01*
X96267Y50900D01*
X96500Y50800D01*
X96667Y50600D01*
X96800Y50300D01*
X96833Y49950D01*
X96800Y49650D01*
X96667Y49350D01*
X96467Y49100D01*
X96233Y49000D01*
X95967Y49100D01*
X95733Y49400D01*
X95600Y49850D01*
X95567Y50350D01*
X95633Y51000D01*
X95733Y51350D01*
X95900Y51700D01*
X96133Y51950D01*
X96367Y52000D01*
X96600Y51900D01*
X96767Y51650D01*
G01X103233Y98750D02*
X103033Y98900D01*
X102800Y99000D01*
X102533D01*
X102233Y98850D01*
X102000Y98600D01*
X101833Y98300D01*
X101700Y97800D01*
X101667Y97350D01*
X101733Y96900D01*
X101833Y96600D01*
X102033Y96300D01*
X102267Y96100D01*
X102500Y96000D01*
X102733D01*
X102967Y96100D01*
X103167Y96250D01*
X103333Y96450D01*
G01X104467Y97250D02*
X104700Y97600D01*
X104900Y97800D01*
X105167Y97900D01*
X105400Y97800D01*
X105567Y97600D01*
X105700Y97300D01*
X105733Y96950D01*
X105700Y96650D01*
X105567Y96350D01*
X105367Y96100D01*
X105133Y96000D01*
X104867Y96100D01*
X104633Y96400D01*
X104500Y96850D01*
X104467Y97350D01*
X104533Y98000D01*
X104633Y98350D01*
X104800Y98700D01*
X105033Y98950D01*
X105267Y99000D01*
X105500Y98900D01*
X105667Y98650D01*
G01X108500Y91500D02*
X108233Y91550D01*
X108000Y91750D01*
X107800Y92050D01*
X107667Y92400D01*
X107600Y92800D01*
Y93200D01*
X107667Y93600D01*
X107800Y93950D01*
X108000Y94250D01*
X108233Y94450D01*
X108500Y94500D01*
X108767Y94450D01*
X109000Y94250D01*
X109200Y93950D01*
X109333Y93600D01*
X109400Y93200D01*
Y92800D01*
X109333Y92400D01*
X109200Y92050D01*
X109000Y91750D01*
X108767Y91550D01*
X108500Y91500D01*
G01X108767Y92300D02*
X109167Y91500D01*
G01X110533Y91850D02*
X110767Y91600D01*
X111033Y91500D01*
X111300Y91600D01*
X111533Y91900D01*
X111700Y92350D01*
X111767Y92800D01*
Y93350D01*
X111700Y93800D01*
X111533Y94200D01*
X111333Y94400D01*
X111100Y94500D01*
X110833Y94400D01*
X110633Y94200D01*
X110500Y93900D01*
X110433Y93500D01*
X110500Y93150D01*
X110667Y92800D01*
X110867Y92600D01*
X111100Y92550D01*
X111367Y92650D01*
X111567Y92900D01*
X111767Y93350D01*
G01X111000Y88500D02*
Y90000D01*
X102000D01*
Y84500D01*
G01X111000Y74500D02*
Y73000D01*
X102000D01*
Y78500D01*
G01X81833Y128500D02*
Y131500D01*
X82667D01*
X82933Y131350D01*
X83100Y131150D01*
X83167Y130750D01*
X83100Y130350D01*
X82900Y130100D01*
X82667Y129950D01*
X81833D01*
G01X82667D02*
X83167Y128500D01*
G01X84467Y131000D02*
X84667Y131300D01*
X84900Y131450D01*
X85167Y131500D01*
X85500Y131400D01*
X85733Y131150D01*
X85800Y130850D01*
X85767Y130550D01*
X85633Y130300D01*
X84967Y129800D01*
X84667Y129450D01*
X84467Y128950D01*
X84400Y128500D01*
X85800D01*
G01X86967Y129100D02*
X87167Y128750D01*
X87433Y128550D01*
X87733Y128500D01*
X88000Y128550D01*
X88267Y128800D01*
X88433Y129100D01*
X88467Y129400D01*
X88400Y129750D01*
X88167Y130000D01*
X87933Y130100D01*
X87633D01*
G01X87933D02*
X88133Y130250D01*
X88300Y130500D01*
X88367Y130800D01*
X88300Y131100D01*
X88133Y131350D01*
X87833Y131500D01*
X87533Y131450D01*
X87233Y131250D01*
G01X83000Y107500D02*
X82733Y107550D01*
X82500Y107750D01*
X82300Y108050D01*
X82167Y108400D01*
X82100Y108800D01*
Y109200D01*
X82167Y109600D01*
X82300Y109950D01*
X82500Y110250D01*
X82733Y110450D01*
X83000Y110500D01*
X83267Y110450D01*
X83500Y110250D01*
X83700Y109950D01*
X83833Y109600D01*
X83900Y109200D01*
Y108800D01*
X83833Y108400D01*
X83700Y108050D01*
X83500Y107750D01*
X83267Y107550D01*
X83000Y107500D01*
G01X83267Y108300D02*
X83667Y107500D01*
G01X84967Y108750D02*
X85200Y109100D01*
X85400Y109300D01*
X85667Y109400D01*
X85900Y109300D01*
X86067Y109100D01*
X86200Y108800D01*
X86233Y108450D01*
X86200Y108150D01*
X86067Y107850D01*
X85867Y107600D01*
X85633Y107500D01*
X85367Y107600D01*
X85133Y107900D01*
X85000Y108350D01*
X84967Y108850D01*
X85033Y109500D01*
X85133Y109850D01*
X85300Y110200D01*
X85533Y110450D01*
X85767Y110500D01*
X86000Y110400D01*
X86167Y110150D01*
G01X96000Y123500D02*
Y125000D01*
X87000D01*
Y119500D01*
G01X96000Y109500D02*
Y108000D01*
X87000D01*
Y113500D01*
G01X96000Y117500D02*
Y115500D01*
G01X110000Y105000D02*
X109733Y105050D01*
X109500Y105250D01*
X109300Y105550D01*
X109167Y105900D01*
X109100Y106300D01*
Y106700D01*
X109167Y107100D01*
X109300Y107450D01*
X109500Y107750D01*
X109733Y107950D01*
X110000Y108000D01*
X110267Y107950D01*
X110500Y107750D01*
X110700Y107450D01*
X110833Y107100D01*
X110900Y106700D01*
Y106300D01*
X110833Y105900D01*
X110700Y105550D01*
X110500Y105250D01*
X110267Y105050D01*
X110000Y105000D01*
G01X110267Y105800D02*
X110667Y105000D01*
G01X112600D02*
X112833Y105050D01*
X113100Y105200D01*
X113267Y105450D01*
X113333Y105800D01*
X113267Y106150D01*
X113067Y106450D01*
X112767Y106600D01*
X112433D01*
X112233Y106700D01*
X112067Y106950D01*
X112000Y107300D01*
X112100Y107650D01*
X112333Y107900D01*
X112600Y108000D01*
X112867Y107900D01*
X113100Y107650D01*
X113200Y107300D01*
X113133Y106950D01*
X112967Y106700D01*
X112767Y106600D01*
X112433D01*
X112133Y106450D01*
X111933Y106150D01*
X111867Y105800D01*
X111933Y105450D01*
X112100Y105200D01*
X112367Y105050D01*
X112600Y105000D01*
G01X116000Y126000D02*
Y127500D01*
X107000D01*
Y122000D01*
G01X116000Y112000D02*
Y110500D01*
X107000D01*
Y116000D01*
G01X101000Y139500D02*
X105000D01*
G01X103000Y141000D02*
Y138000D01*
G01X99567Y147500D02*
X100400Y144500D01*
X101233Y147500D01*
G01X103733Y147250D02*
X103533Y147400D01*
X103300Y147500D01*
X103033D01*
X102733Y147350D01*
X102500Y147100D01*
X102333Y146800D01*
X102200Y146300D01*
X102167Y145850D01*
X102233Y145400D01*
X102333Y145100D01*
X102533Y144800D01*
X102767Y144600D01*
X103000Y144500D01*
X103233D01*
X103467Y144600D01*
X103667Y144750D01*
X103833Y144950D01*
G01X106333Y147250D02*
X106133Y147400D01*
X105900Y147500D01*
X105633D01*
X105333Y147350D01*
X105100Y147100D01*
X104933Y146800D01*
X104800Y146300D01*
X104767Y145850D01*
X104833Y145400D01*
X104933Y145100D01*
X105133Y144800D01*
X105367Y144600D01*
X105600Y144500D01*
X105833D01*
X106067Y144600D01*
X106267Y144750D01*
X106433Y144950D01*
G01X110000Y135000D02*
X130500D01*
Y150000D01*
X109500D01*
Y135000D01*
X110000D01*
G01X123500Y26500D02*
X128000D01*
G01X123367Y36000D02*
X124200Y33000D01*
X125033Y36000D01*
G01X126800Y33000D02*
X126533Y33050D01*
X126300Y33250D01*
X126100Y33550D01*
X125967Y33900D01*
X125900Y34300D01*
Y34700D01*
X125967Y35100D01*
X126100Y35450D01*
X126300Y35750D01*
X126533Y35950D01*
X126800Y36000D01*
X127067Y35950D01*
X127300Y35750D01*
X127500Y35450D01*
X127633Y35100D01*
X127700Y34700D01*
Y34300D01*
X127633Y33900D01*
X127500Y33550D01*
X127300Y33250D01*
X127067Y33050D01*
X126800Y33000D01*
G01X150000Y35000D02*
X129500D01*
Y20000D01*
X150500D01*
Y35000D01*
X150000D01*
G01X113867Y37500D02*
X114700Y34500D01*
X115533Y37500D01*
G01X116667Y34500D02*
Y37500D01*
X117933D01*
G01X117467Y36050D02*
X116667D01*
G01X126833Y41500D02*
Y44500D01*
X127667D01*
X127933Y44350D01*
X128100Y44150D01*
X128167Y43750D01*
X128100Y43350D01*
X127900Y43100D01*
X127667Y42950D01*
X126833D01*
G01X127667D02*
X128167Y41500D01*
G01X129433Y44500D02*
Y41500D01*
X130767D01*
G01X129233Y63250D02*
X129033Y63400D01*
X128800Y63500D01*
X128533D01*
X128233Y63350D01*
X128000Y63100D01*
X127833Y62800D01*
X127700Y62300D01*
X127667Y61850D01*
X127733Y61400D01*
X127833Y61100D01*
X128033Y60800D01*
X128267Y60600D01*
X128500Y60500D01*
X128733D01*
X128967Y60600D01*
X129167Y60750D01*
X129333Y60950D01*
G01X131033Y60500D02*
X131100Y61150D01*
X131200Y61700D01*
X131333Y62200D01*
X131500Y62750D01*
X131767Y63500D01*
X130433D01*
G01X128233Y55250D02*
X128033Y55400D01*
X127800Y55500D01*
X127533D01*
X127233Y55350D01*
X127000Y55100D01*
X126833Y54800D01*
X126700Y54300D01*
X126667Y53850D01*
X126733Y53400D01*
X126833Y53100D01*
X127033Y52800D01*
X127267Y52600D01*
X127500Y52500D01*
X127733D01*
X127967Y52600D01*
X128167Y52750D01*
X128333Y52950D01*
G01X129367D02*
X129567Y52700D01*
X129800Y52550D01*
X130100Y52500D01*
X130400Y52600D01*
X130633Y52800D01*
X130800Y53150D01*
X130833Y53550D01*
X130767Y53950D01*
X130600Y54200D01*
X130367Y54400D01*
X130133Y54450D01*
X129900Y54400D01*
X129600Y54200D01*
X129700Y55500D01*
X130600D01*
G01X111000Y82500D02*
Y80500D01*
G01X130500Y94500D02*
X130233Y94550D01*
X130000Y94750D01*
X129800Y95050D01*
X129667Y95400D01*
X129600Y95800D01*
Y96200D01*
X129667Y96600D01*
X129800Y96950D01*
X130000Y97250D01*
X130233Y97450D01*
X130500Y97500D01*
X130767Y97450D01*
X131000Y97250D01*
X131200Y96950D01*
X131333Y96600D01*
X131400Y96200D01*
Y95800D01*
X131333Y95400D01*
X131200Y95050D01*
X131000Y94750D01*
X130767Y94550D01*
X130500Y94500D01*
G01X130767Y95300D02*
X131167Y94500D01*
G01X133100D02*
Y97500D01*
X132700Y96900D01*
G01Y94500D02*
X133500D01*
G01X135700Y97500D02*
X135433Y97400D01*
X135233Y97150D01*
X135100Y96850D01*
X135000Y96450D01*
X134967Y96000D01*
X135000Y95550D01*
X135100Y95150D01*
X135233Y94850D01*
X135433Y94600D01*
X135700Y94500D01*
X135967Y94600D01*
X136167Y94850D01*
X136300Y95150D01*
X136400Y95550D01*
X136433Y96000D01*
X136400Y96450D01*
X136300Y96850D01*
X136167Y97150D01*
X135967Y97400D01*
X135700Y97500D01*
G01X141000Y91000D02*
Y92500D01*
X132000D01*
Y87000D01*
G01X141000Y77000D02*
Y75500D01*
X132000D01*
Y81000D01*
G01X116000Y120000D02*
Y118000D01*
G01X139833Y105500D02*
Y108500D01*
X140633D01*
X140900Y108350D01*
X141100Y108000D01*
X141167Y107600D01*
X141100Y107200D01*
X140933Y106900D01*
X140633Y106750D01*
X139833D01*
G01X142467Y108000D02*
X142667Y108300D01*
X142900Y108450D01*
X143167Y108500D01*
X143500Y108400D01*
X143733Y108150D01*
X143800Y107850D01*
X143767Y107550D01*
X143633Y107300D01*
X142967Y106800D01*
X142667Y106450D01*
X142467Y105950D01*
X142400Y105500D01*
X143800D01*
G01X132000Y145000D02*
X135500D01*
G01X141000Y85000D02*
Y83000D01*
G54D12*
G01X136122Y115000D02*
Y123858D01*
G01X140650Y119528D02*
X131594D01*
G01X136122Y113622D02*
G03X142028Y119528I0J5906D01*
G03X135925Y125433I-5909J-1D01*
G03X130217Y119528I194J-5899D01*
G03X136122Y113622I5905J-1D01*
G01X126280Y118543D02*
Y120512D01*
G01X145965Y125039D02*
Y129370D01*
X126280D01*
Y128189D01*
G01X145965Y114016D02*
Y109685D01*
X126280D01*
Y110866D01*
M02*
