G04 ================== begin FILE IDENTIFICATION RECORD ==================*
G04 Layout Name:  LAYOUT.brd*
G04 Film Name:    TOP*
G04 File Format:  Gerber RS274X*
G04 File Origin:  Cadence Allegro 16.6-2015-S059*
G04 Origin Date:  Sat Dec 06 18:39:30 2025*
G04 *
G04 Layer:  ETCH/TOP*
G04 Layer:  PIN/TOP*
G04 Layer:  VIA CLASS/TOP*
G04 *
G04 Offset:    (0.00 0.00)*
G04 Mirror:    No*
G04 Mode:      Positive*
G04 Rotation:  0*
G04 FullContactRelief:  No*
G04 UndefLineWidth:     7.00*
G04 ================== end FILE IDENTIFICATION RECORD ====================*
%FSLAX25Y25*MOIN*%
%IR0*IPPOS*OFA0.00000B0.00000*MIA0B0*SFA1.00000B1.00000*%
%ADD12R,.08X.12*%
%ADD14C,.03*%
%ADD10C,.04*%
%ADD11R,.05X.05*%
%ADD18R,.05118X.05118*%
%ADD16R,.06X.08*%
%ADD15R,.05X.036*%
%ADD13R,.048X.076*%
%ADD17R,.076X.048*%
%ADD19R,.05118X.07874*%
%ADD20C,.018*%
%ADD21C,.07878*%
%ADD22R,.07804X.07804*%
G75*
%LPD*%
G75*
G36*
G01X5000Y5000D02*
Y152500D01*
X152500D01*
Y5000D01*
X5000D01*
G37*
%LPC*%
G75*
G36*
G01X15502Y118902D02*
Y111098D01*
X7698D01*
Y118902D01*
X9298D01*
Y123598D01*
X7698D01*
Y131402D01*
X9298D01*
Y133253D01*
X10198Y134153D01*
Y135098D01*
X7098D01*
Y149902D01*
X27902D01*
Y135098D01*
X14802D01*
Y132247D01*
X14639Y132084D01*
G03X14922Y131402I283J-282D01*
G01X15502D01*
Y123598D01*
X13902D01*
Y118902D01*
X15502D01*
G37*
G36*
G01X40502Y43902D02*
Y36098D01*
X32698D01*
Y43902D01*
X35198D01*
Y45732D01*
G02X39802I2302J1768D01*
G01Y43902D01*
X40502D01*
G37*
G36*
G01X119402Y32902D02*
Y22098D01*
X110598D01*
Y32902D01*
X112698D01*
Y36547D01*
X108598Y40647D01*
Y46098D01*
X106998D01*
Y53902D01*
X108598D01*
Y58598D01*
X106998D01*
Y66402D01*
X114802D01*
Y64802D01*
X118232D01*
G02Y60198I1768J-2302D01*
G01X114802D01*
Y58598D01*
X113202D01*
Y53902D01*
X114802D01*
Y46098D01*
X113202D01*
Y42553D01*
X117302Y38453D01*
Y32902D01*
X119402D01*
G37*
G36*
G01X150402Y34902D02*
Y20098D01*
X129598D01*
Y34902D01*
X141978D01*
G03X142260Y35585I-1J400D01*
G01X141098Y36747D01*
Y38598D01*
X139498D01*
Y46402D01*
X141098D01*
Y49553D01*
X141961Y50416D01*
G03X141678Y51098I-283J282D01*
G01X141098D01*
Y58902D01*
X142698D01*
Y63598D01*
X141098D01*
Y71402D01*
X148902D01*
Y63598D01*
X147302D01*
Y58902D01*
X148902D01*
Y51098D01*
X147302D01*
Y49247D01*
X145702Y47647D01*
Y46402D01*
X147302D01*
Y38598D01*
X146722D01*
G03X146439Y37916I0J-400D01*
G01X147302Y37053D01*
Y34902D01*
X150402D01*
G37*
G36*
G01X94202Y30202D02*
Y19798D01*
X78698D01*
Y22698D01*
X72302D01*
Y21098D01*
X64498D01*
Y28902D01*
X72302D01*
Y27302D01*
X78698D01*
Y30202D01*
X94202D01*
G37*
G36*
G01X50402Y17598D02*
X29598D01*
Y32402D01*
X42698D01*
Y36098D01*
X41098D01*
Y43902D01*
X48902D01*
Y42302D01*
X56098D01*
Y43902D01*
X57698D01*
Y46653D01*
X60847Y49802D01*
X71547D01*
X72698Y50953D01*
Y52298D01*
X63298D01*
Y55198D01*
X53802D01*
Y52298D01*
X38298D01*
Y55198D01*
X31402D01*
Y53598D01*
X23598D01*
Y61402D01*
X31402D01*
Y59802D01*
X38298D01*
Y62702D01*
X39798D01*
Y64553D01*
X45698Y70453D01*
Y74298D01*
X44098D01*
Y78098D01*
X36098D01*
Y84502D01*
X37698D01*
Y91653D01*
X40847Y94802D01*
X44047D01*
X52698Y103453D01*
Y114347D01*
X52243Y114802D01*
G03X51902Y114661I-141J-141D01*
G01Y114498D01*
X43902D01*
Y113202D01*
X51902D01*
Y106798D01*
X50302D01*
Y103347D01*
X47153Y100198D01*
X24802D01*
Y98598D01*
X16998D01*
Y106402D01*
X17578D01*
G03X17861Y107084I0J400D01*
G01X17698Y107247D01*
Y111098D01*
X16098D01*
Y118902D01*
X17698D01*
Y123598D01*
X16098D01*
Y131402D01*
X23902D01*
Y123598D01*
X22302D01*
Y118902D01*
X23902D01*
Y111098D01*
X22302D01*
Y109153D01*
X23202Y108253D01*
Y106402D01*
X24802D01*
Y104802D01*
X45247D01*
X45698Y105253D01*
Y106798D01*
X44098D01*
Y110598D01*
X36098D01*
Y117002D01*
X37698D01*
Y124047D01*
X32698Y129047D01*
Y137098D01*
X30598D01*
Y147902D01*
X39402D01*
Y137098D01*
X37302D01*
Y130953D01*
X40000Y128255D01*
X43761Y132016D01*
G03X43478Y132698I-283J282D01*
G01X41098D01*
Y140502D01*
X48902D01*
Y139922D01*
G03X49584Y139639I400J0D01*
G01X49747Y139802D01*
X52298D01*
Y149202D01*
X62702D01*
Y148239D01*
G03X63043Y148098I200J0D01*
G01X63147Y148202D01*
X66098D01*
Y149802D01*
X73902D01*
Y148202D01*
X78598D01*
Y149802D01*
X86402D01*
Y148202D01*
X88253D01*
X91653Y144802D01*
X109598D01*
Y149902D01*
X130402D01*
Y135098D01*
X117302D01*
Y133247D01*
X117039Y132984D01*
G03X117322Y132302I283J-282D01*
G01X118231D01*
X118284Y132340D01*
G02X122546Y128607I1716J-2340D01*
G03X122897Y128016I351J-191D01*
G01X128960D01*
Y126356D01*
X131898D01*
X142802Y115453D01*
Y99195D01*
G02Y95659I-2302J-1768D01*
G01Y90902D01*
X144402D01*
Y84498D01*
X136402D01*
Y83202D01*
X144402D01*
Y82302D01*
X144747D01*
X145198Y82753D01*
Y112082D01*
X144942Y112338D01*
Y114190D01*
X143284D01*
Y124866D01*
X151204D01*
Y114190D01*
X149802D01*
Y80847D01*
X146653Y77698D01*
X144402D01*
Y76798D01*
X136598D01*
Y80598D01*
X128598D01*
Y87002D01*
X130198D01*
Y89047D01*
X126547Y92698D01*
X116653D01*
X113039Y89084D01*
G03X113322Y88402I283J-282D01*
G01X114402D01*
Y87502D01*
X120753D01*
X128002Y80253D01*
Y70953D01*
X128929Y70026D01*
G02X129268Y69802I-1427J-2527D01*
G01X132698D01*
Y71402D01*
X140502D01*
Y63598D01*
X138902D01*
Y58902D01*
X140502D01*
Y51098D01*
X132698D01*
Y58902D01*
X134298D01*
Y63598D01*
X132698D01*
Y65198D01*
X129268D01*
G02X124598Y67499I-1768J2302D01*
G01Y67698D01*
X117979D01*
X117279Y66998D01*
X105254D01*
X104999Y66743D01*
G03X105140Y66402I141J-141D01*
G01X106402D01*
Y58598D01*
X98598D01*
Y66402D01*
X100198D01*
Y68452D01*
X101262Y69516D01*
G03X100979Y70198I-283J282D01*
G01X91547D01*
X90484Y71261D01*
G03X89802Y70978I-282J-283D01*
G01Y40847D01*
X86653Y37698D01*
X72302D01*
Y36098D01*
X64498D01*
Y43902D01*
X72302D01*
Y42302D01*
X84747D01*
X85198Y42753D01*
Y71547D01*
X74646Y82100D01*
X74402Y81998D01*
X66402D01*
Y80702D01*
X74402D01*
Y74298D01*
X72802D01*
Y69547D01*
X70453Y67198D01*
X48953D01*
X45140Y63385D01*
G03X45422Y62702I283J-283D01*
G01X53802D01*
Y59802D01*
X63298D01*
Y62702D01*
X72698D01*
Y65953D01*
X74622Y67877D01*
X74632Y67941D01*
G02X77941Y64632I2868J-441D01*
G01X77877Y64622D01*
X77302Y64047D01*
Y62702D01*
X78802D01*
Y52298D01*
X77302D01*
Y49047D01*
X73453Y45198D01*
X62753D01*
X62302Y44747D01*
Y43902D01*
X63902D01*
Y36098D01*
X62302D01*
Y28902D01*
X63902D01*
Y21098D01*
X56098D01*
Y22698D01*
X50402D01*
Y17598D01*
G37*
G54D21*
X20000Y20000D03*
X137500Y137500D03*
G54D22*
X19100Y57500D03*
X12500Y102500D03*
X45000Y145000D03*
X102500Y50000D03*
X135000Y42500D03*
%LPD*%
G75*
G54D10*
X20000Y20000D03*
X137500Y137500D03*
G54D20*
G01X19100Y53398D02*
Y57500D01*
G01D02*
Y61602D01*
G01X14998Y57500D02*
X19100D01*
G01X12500Y98398D02*
Y102500D01*
G01D02*
Y106602D01*
G01X8398Y102500D02*
X12500D01*
G01X20000Y115000D02*
Y108200D01*
X20900Y107300D01*
Y102500D01*
G01X20000Y127500D02*
Y115000D01*
G01X11600Y127500D02*
Y115000D01*
G01X12500Y142500D02*
Y133200D01*
X11600Y132300D01*
Y127500D01*
G01X35000Y17398D02*
Y25000D01*
G01D02*
Y32602D01*
G01X29398Y25000D02*
X35000D01*
G01X45000Y40000D02*
X60000D01*
G01X45000Y25000D02*
Y40000D01*
G01Y25000D02*
X60000D01*
G01X37500Y47500D02*
Y40900D01*
X36600Y40000D01*
G01X48000Y77500D02*
Y69500D01*
G01X27500Y57500D02*
X42100D01*
G01X48000Y69500D02*
X42100Y63600D01*
Y57500D01*
G01X48000Y69500D02*
X69500D01*
X70500Y70500D01*
Y77500D01*
G01X50000Y57500D02*
X67100D01*
G01X48000Y117700D02*
X52600D01*
X55000Y115300D01*
Y102500D01*
X45000Y92500D01*
X41800D01*
X40000Y90700D01*
Y81300D01*
G01X48000Y85200D02*
X52800D01*
X55000Y87400D01*
G01X68000Y120200D02*
X67500Y120700D01*
Y123200D01*
X65700Y125000D01*
X50000D01*
X48000Y123000D01*
Y117700D01*
G01X20900Y102500D02*
X46200D01*
X48000Y104300D01*
Y110000D01*
G01X62500Y130000D02*
X45000D01*
X40000Y125000D01*
G01D02*
Y113800D01*
G01X35000Y142500D02*
Y130000D01*
X40000Y125000D01*
G01X45000Y145000D02*
Y149102D01*
G01X40898Y145000D02*
X45000D01*
G01D02*
X49102D01*
G01X22500Y134898D02*
Y142500D01*
G01D02*
Y150102D01*
G01Y142500D02*
X28102D01*
G01X57500Y137500D02*
X50700D01*
X49800Y136600D01*
X45000D01*
G01X75000Y57500D02*
Y50000D01*
X72500Y47500D01*
X61800D01*
X60000Y45700D01*
Y40000D01*
G01Y25000D02*
Y40000D01*
G01X68400D02*
X85700D01*
X87500Y41800D01*
Y72500D01*
X74800Y85200D01*
X70500D01*
G01X68400Y25000D02*
X82500D01*
G01X75000Y57500D02*
Y65000D01*
X77500Y67500D01*
G01X82500Y137500D02*
Y106800D01*
X75700Y100000D01*
X62500D01*
X60000Y102500D01*
Y116300D01*
G01X120000Y77500D02*
X115000Y72500D01*
X92500D01*
X88800Y76200D01*
X88425D01*
X86200Y78425D01*
Y78800D01*
X72500Y92500D01*
X65000D01*
X62500Y90000D01*
Y81300D01*
G01Y130000D02*
X67500D01*
X70000Y132500D01*
Y137500D01*
G01X72500Y105000D02*
X69800D01*
X68000Y106800D01*
Y112500D01*
G01X70000Y145900D02*
X64100D01*
X63600Y145400D01*
X57500D01*
G01X82500Y145900D02*
X70000D01*
G01X90400Y19598D02*
Y25000D01*
G01D02*
Y30402D01*
G01Y25000D02*
X94402D01*
G01X102500Y45898D02*
Y50000D01*
G01D02*
Y54102D01*
G01X98398Y50000D02*
X102500D01*
G01Y62500D02*
Y67499D01*
X104301Y69300D01*
X116326D01*
X117026Y70000D01*
X125700D01*
G01X115000Y27500D02*
Y37500D01*
X110900Y41600D01*
Y50000D01*
G01X110500Y85200D02*
X119800D01*
X125700Y79300D01*
Y70000D01*
G01X90000Y80000D02*
X92688Y82688D01*
X96312D01*
X97700Y81300D01*
X102500D01*
G01X87500Y116300D02*
Y97500D01*
G01X115500Y94800D02*
X110700Y90000D01*
X89300D01*
X87500Y91800D01*
Y97500D01*
G01X95900D02*
Y105000D01*
G01X110500Y77500D02*
X120000D01*
G01X95500Y120200D02*
X101300D01*
X102700Y118800D01*
X107500D01*
G01D02*
Y126700D01*
X115000Y134200D01*
Y142500D01*
G01X95900Y105000D02*
Y108000D01*
X95500Y108400D01*
Y112500D01*
G01X102500Y105000D02*
X95900D01*
G01X115000Y142500D02*
X90700D01*
X87300Y145900D01*
X82500D01*
G01X135000Y38398D02*
Y42500D01*
G01Y19898D02*
Y27500D01*
G01D02*
Y35102D01*
G01X129398Y27500D02*
X135000D01*
G01Y42500D02*
Y46602D01*
G01X130898Y42500D02*
X135000D01*
G01X136600Y55000D02*
Y67500D01*
G01X125700Y70000D02*
X128200Y67500D01*
G01D02*
X136600D01*
G01X127500D02*
X128200D01*
G01X110900Y50000D02*
Y62500D01*
G01D02*
X120000D01*
G01X140500Y80000D02*
X145700D01*
X147500Y81800D01*
Y113035D01*
X147244Y113291D01*
Y119528D01*
G01X115500Y115000D02*
Y94800D01*
G01D02*
X115700Y95000D01*
X127500D01*
X132500Y90000D01*
Y83800D01*
G01X125000Y124055D02*
X130945D01*
X140500Y114500D01*
Y97427D01*
G01D02*
Y87700D01*
G01X120000Y130000D02*
X117500D01*
X115500Y128000D01*
Y122700D01*
G01X125000Y115000D02*
X115500D01*
G01X125000Y134898D02*
Y142500D01*
G01D02*
Y150102D01*
G01Y142500D02*
X130602D01*
G01X145000Y27500D02*
Y36100D01*
X143400Y37700D01*
Y42500D01*
G01X145000Y55000D02*
Y67500D01*
G01X143400Y42500D02*
Y48600D01*
X145000Y50200D01*
Y55000D01*
G54D11*
X19100Y57500D03*
X12500Y102500D03*
X20900D03*
X20000Y127500D03*
X11600D03*
X20000Y115000D03*
X11600D03*
X45000Y40000D03*
X36600D03*
X27500Y57500D03*
X45000Y145000D03*
Y136600D03*
X60000Y25000D03*
X68400D03*
X60000Y40000D03*
X68400D03*
X70000Y137500D03*
Y145900D03*
X82500Y137500D03*
Y145900D03*
X102500Y62500D03*
X110900D03*
X102500Y50000D03*
X110900D03*
X87500Y97500D03*
X95900D03*
X135000Y42500D03*
X143400D03*
X136600Y67500D03*
Y55000D03*
X145000Y67500D03*
Y55000D03*
G54D12*
X22500Y142500D03*
X12500D03*
X45000Y25000D03*
X35000D03*
X115000Y142500D03*
X135000Y27500D03*
X145000D03*
X125000Y142500D03*
G54D13*
X50000Y57500D03*
X42100D03*
X82500Y25000D03*
X75000Y57500D03*
X67100D03*
X90400Y25000D03*
G54D14*
X37500Y47500D03*
X77500Y67500D03*
X55000Y87400D03*
X62500Y130000D03*
X72500Y105000D03*
X90000Y80000D03*
X102500Y105000D03*
X127500Y67500D03*
X120000Y62500D03*
Y77500D03*
X140500Y97427D03*
X120000Y130000D03*
G54D15*
X48000Y77500D03*
Y85200D03*
X40000Y81300D03*
X48000Y110000D03*
Y117700D03*
X40000Y113800D03*
X70500Y77500D03*
Y85200D03*
X62500Y81300D03*
X68000Y112500D03*
Y120200D03*
X60000Y116300D03*
X110500Y77500D03*
Y85200D03*
X102500Y81300D03*
X95500Y112500D03*
Y120200D03*
X87500Y116300D03*
X107500Y118800D03*
X140500Y80000D03*
Y87700D03*
X132500Y83800D03*
X115500Y115000D03*
Y122700D03*
G54D16*
X35000Y142500D03*
X115000Y27500D03*
G54D17*
X57500Y137500D03*
Y145400D03*
G54D18*
X125000Y124055D03*
Y115000D03*
G54D19*
X147244Y119528D03*
M02*
